<svg xmlns="http://www.w3.org/2000/svg" xmlns:xlink="http://www.w3.org/1999/xlink" width="803" zoomAndPan="magnify" viewBox="0 0 602.25 159.000002" height="212" preserveAspectRatio="xMidYMid meet" version="1.0"><defs><g/><clipPath id="2f74db39ca"><rect x="0" width="257" y="0" height="80"/></clipPath><clipPath id="a72710c4e3"><rect x="0" width="203" y="0" height="115"/></clipPath><clipPath id="39c0c25bbd"><rect x="0" width="538" y="0" height="30"/></clipPath></defs><g transform="matrix(1, 0, 0, 1, 70, 42)"><g clip-path="url(#2f74db39ca)"><g fill="#1b1b1b" fill-opacity="1"><g transform="translate(1.651085, 56.788164)"><g><path d="M 10.671875 -7.875 L 45.59375 -53.25 L 46.984375 -53.25 L 43.4375 -9.734375 C 43.332031 -8.085938 43.28125 -7.003906 43.28125 -6.484375 C 43.28125 -3.085938 45.160156 -1.390625 48.921875 -1.390625 L 50.46875 -1.390625 L 50.078125 0 L 28.28125 0 L 28.671875 -1.390625 C 30.316406 -1.390625 31.613281 -1.53125 32.5625 -1.8125 C 33.519531 -2.09375 34.269531 -2.6875 34.8125 -3.59375 C 35.351562 -4.5 35.703125 -5.828125 35.859375 -7.578125 L 36.625 -17 L 21.09375 -17 L 15.453125 -9.8125 C 14.316406 -8.425781 13.539062 -7.316406 13.125 -6.484375 C 12.71875 -5.660156 12.515625 -4.890625 12.515625 -4.171875 C 12.515625 -2.421875 13.878906 -1.492188 16.609375 -1.390625 L 16.234375 0 L 1.078125 0 L 0.921875 -1.390625 C 4.117188 -1.441406 7.367188 -3.601562 10.671875 -7.875 Z M 36.78125 -19.625 L 38.484375 -39.5625 L 38.328125 -39.71875 L 23.03125 -19.625 Z M 36.78125 -19.625 "/></g></g></g><g fill="#1b1b1b" fill-opacity="1"><g transform="translate(51.801951, 56.788164)"><g><path d="M 18.390625 -50.78125 C 19.472656 -50.78125 20.398438 -50.390625 21.171875 -49.609375 C 21.941406 -48.835938 22.328125 -47.9375 22.328125 -46.90625 C 22.328125 -45.820312 21.941406 -44.894531 21.171875 -44.125 C 20.398438 -43.351562 19.472656 -42.96875 18.390625 -42.96875 C 17.359375 -42.96875 16.457031 -43.351562 15.6875 -44.125 C 14.914062 -44.894531 14.53125 -45.820312 14.53125 -46.90625 C 14.53125 -47.9375 14.914062 -48.835938 15.6875 -49.609375 C 16.457031 -50.390625 17.359375 -50.78125 18.390625 -50.78125 Z M 10.8125 -6.875 C 10.40625 -5.539062 10.203125 -4.613281 10.203125 -4.09375 C 10.203125 -3.269531 10.640625 -2.859375 11.515625 -2.859375 C 12.128906 -2.859375 12.988281 -3.332031 14.09375 -4.28125 C 15.207031 -5.238281 16.359375 -6.644531 17.546875 -8.5 L 18.78125 -7.734375 C 17.082031 -5.097656 15.175781 -2.992188 13.0625 -1.421875 C 10.945312 0.140625 9.015625 0.921875 7.265625 0.921875 C 6.234375 0.921875 5.445312 0.585938 4.90625 -0.078125 C 4.363281 -0.742188 4.09375 -1.644531 4.09375 -2.78125 C 4.09375 -3.601562 4.25 -4.554688 4.5625 -5.640625 L 10.734375 -26.890625 C 11.097656 -28.179688 11.28125 -29.082031 11.28125 -29.59375 C 11.28125 -30.269531 11.046875 -30.863281 10.578125 -31.375 C 10.117188 -31.894531 9.425781 -32.15625 8.5 -32.15625 C 8.132812 -32.15625 7.15625 -32.023438 5.5625 -31.765625 L 5.953125 -33.078125 L 17.703125 -35.3125 L 19.015625 -35.3125 Z M 10.8125 -6.875 "/></g></g></g><g fill="#1b1b1b" fill-opacity="1"><g transform="translate(67.333993, 56.788164)"><g><path d="M 53.171875 -40.65625 C 53.171875 -37.457031 51.90625 -34.46875 49.375 -31.6875 C 46.851562 -28.90625 43.019531 -26.972656 37.875 -25.890625 L 46.375 -7.953125 C 47.445312 -5.691406 48.578125 -4.046875 49.765625 -3.015625 C 50.953125 -1.984375 52.679688 -1.441406 54.953125 -1.390625 L 54.484375 0 L 42.203125 0 L 30.21875 -25.34375 C 28.3125 -25.5 27.097656 -25.628906 26.578125 -25.734375 C 26.378906 -25.734375 25.867188 -25.785156 25.046875 -25.890625 L 20.5625 -10.125 C 20.40625 -9.757812 20.195312 -9.050781 19.9375 -8 C 19.675781 -6.945312 19.546875 -6.054688 19.546875 -5.328125 C 19.546875 -3.734375 20.113281 -2.675781 21.25 -2.15625 C 22.382812 -1.644531 23.851562 -1.390625 25.65625 -1.390625 L 25.265625 0 L 1.9375 0 L 2.3125 -1.390625 C 5.25 -1.390625 7.382812 -1.757812 8.71875 -2.5 C 10.0625 -3.25 11.097656 -4.835938 11.828125 -7.265625 L 21.5625 -40.953125 C 22.070312 -42.753906 22.429688 -44.066406 22.640625 -44.890625 C 22.847656 -45.722656 22.953125 -46.34375 22.953125 -46.75 C 22.953125 -48.457031 22.382812 -49.554688 21.25 -50.046875 C 20.113281 -50.535156 18.539062 -50.78125 16.53125 -50.78125 L 16.921875 -52.171875 L 35.390625 -52.171875 C 41.160156 -52.171875 45.566406 -51.097656 48.609375 -48.953125 C 51.648438 -46.816406 53.171875 -44.050781 53.171875 -40.65625 Z M 31.6875 -49.078125 L 25.734375 -28.125 C 27.222656 -27.820312 28.847656 -27.671875 30.609375 -27.671875 C 33.691406 -27.671875 36.289062 -28.300781 38.40625 -29.5625 C 40.519531 -30.820312 42.078125 -32.441406 43.078125 -34.421875 C 44.085938 -36.410156 44.59375 -38.515625 44.59375 -40.734375 C 44.59375 -43.617188 43.738281 -45.78125 42.03125 -47.21875 C 40.332031 -48.65625 38.117188 -49.375 35.390625 -49.375 C 34.566406 -49.375 33.332031 -49.273438 31.6875 -49.078125 Z M 31.6875 -49.078125 "/></g></g></g><g fill="#1b1b1b" fill-opacity="1"><g transform="translate(116.403027, 56.788164)"><g><path d="M 25.046875 -35.3125 C 27.203125 -35.3125 29.015625 -34.769531 30.484375 -33.6875 C 31.953125 -32.613281 32.6875 -31.222656 32.6875 -29.515625 C 32.6875 -27.867188 31.910156 -25.988281 30.359375 -23.875 C 28.816406 -21.769531 26.304688 -19.90625 22.828125 -18.28125 C 19.359375 -16.65625 14.941406 -15.765625 9.578125 -15.609375 C 9.273438 -14.578125 9.125 -13.316406 9.125 -11.828125 C 9.125 -8.679688 9.972656 -6.398438 11.671875 -4.984375 C 13.367188 -3.566406 15.25 -2.859375 17.3125 -2.859375 C 20.757812 -2.859375 24.265625 -4.582031 27.828125 -8.03125 L 28.828125 -7.109375 C 23.316406 -1.753906 17.984375 0.921875 12.828125 0.921875 C 10.710938 0.921875 8.867188 0.394531 7.296875 -0.65625 C 5.734375 -1.707031 4.550781 -3.082031 3.75 -4.78125 C 2.945312 -6.488281 2.546875 -8.242188 2.546875 -10.046875 C 2.546875 -13.648438 3.585938 -17.4375 5.671875 -21.40625 C 7.765625 -25.375 10.550781 -28.679688 14.03125 -31.328125 C 17.507812 -33.984375 21.179688 -35.3125 25.046875 -35.3125 Z M 10.046875 -17.078125 C 13.546875 -17.335938 16.378906 -17.929688 18.546875 -18.859375 C 20.660156 -19.785156 22.375 -20.984375 23.6875 -22.453125 C 25 -23.921875 25.9375 -25.363281 26.5 -26.78125 C 27.070312 -28.195312 27.359375 -29.367188 27.359375 -30.296875 C 27.359375 -31.171875 27.035156 -31.976562 26.390625 -32.71875 C 25.742188 -33.46875 24.828125 -33.84375 23.640625 -33.84375 C 21.585938 -33.84375 19.59375 -32.890625 17.65625 -30.984375 C 15.726562 -29.078125 14.082031 -26.8125 12.71875 -24.1875 C 11.351562 -21.5625 10.460938 -19.191406 10.046875 -17.078125 Z M 10.046875 -17.078125 "/></g></g></g><g fill="#1b1b1b" fill-opacity="1"><g transform="translate(144.839862, 56.788164)"><g><path d="M 12.140625 -17.390625 C 15.378906 -22.742188 18.644531 -27.066406 21.9375 -30.359375 C 25.238281 -33.660156 28.304688 -35.3125 31.140625 -35.3125 C 32.328125 -35.3125 33.316406 -34.910156 34.109375 -34.109375 C 34.910156 -33.316406 35.3125 -32.175781 35.3125 -30.6875 C 35.3125 -29.289062 34.953125 -27.28125 34.234375 -24.65625 L 29.359375 -7.953125 C 28.898438 -6.304688 28.671875 -5.175781 28.671875 -4.5625 C 28.671875 -4.09375 28.785156 -3.753906 29.015625 -3.546875 C 29.242188 -3.347656 29.488281 -3.25 29.75 -3.25 C 30.375 -3.25 31.328125 -3.914062 32.609375 -5.25 C 33.898438 -6.59375 34.773438 -7.648438 35.234375 -8.421875 L 36.40625 -7.5 C 34.800781 -5.28125 33.003906 -3.320312 31.015625 -1.625 C 29.035156 0.0703125 27.171875 0.921875 25.421875 0.921875 C 24.597656 0.921875 23.898438 0.601562 23.328125 -0.03125 C 22.765625 -0.675781 22.484375 -1.539062 22.484375 -2.625 C 22.484375 -3.757812 22.769531 -5.28125 23.34375 -7.1875 L 28.59375 -25.65625 C 28.644531 -25.8125 28.773438 -26.234375 28.984375 -26.921875 C 29.191406 -27.617188 29.296875 -28.304688 29.296875 -28.984375 C 29.296875 -29.648438 29.113281 -30.160156 28.75 -30.515625 C 28.382812 -30.878906 28 -31.0625 27.59375 -31.0625 C 26.40625 -31.0625 24.691406 -30.054688 22.453125 -28.046875 C 20.210938 -26.046875 18.035156 -23.523438 15.921875 -20.484375 C 14.117188 -17.953125 12.660156 -15.617188 11.546875 -13.484375 C 10.441406 -11.347656 9.453125 -8.757812 8.578125 -5.71875 C 7.910156 -3.5 7.367188 -1.59375 6.953125 0 L 1 0 L 8.34375 -25.734375 C 8.394531 -25.890625 8.570312 -26.546875 8.875 -27.703125 C 9.1875 -28.859375 9.34375 -29.695312 9.34375 -30.21875 C 9.34375 -30.832031 9.125 -31.304688 8.6875 -31.640625 C 8.25 -31.984375 7.671875 -32.15625 6.953125 -32.15625 C 6.234375 -32.15625 5.203125 -32.101562 3.859375 -32 L 3.859375 -33.390625 L 15.6875 -35.3125 L 17.078125 -35.3125 L 11.984375 -17.546875 Z M 12.140625 -17.390625 "/></g></g></g><g fill="#1b1b1b" fill-opacity="1"><g transform="translate(178.067682, 56.788164)"><g><path d="M 21.015625 -43.890625 L 22.484375 -43.890625 L 19.78125 -34.46875 L 25.1875 -34.46875 L 24.578125 -32.078125 L 19.09375 -32.078125 L 12.203125 -8.03125 C 11.585938 -5.976562 11.28125 -4.585938 11.28125 -3.859375 C 11.28125 -2.929688 11.664062 -2.46875 12.4375 -2.46875 C 13.113281 -2.46875 13.941406 -2.84375 14.921875 -3.59375 C 15.898438 -4.34375 16.8125 -5.179688 17.65625 -6.109375 C 18.507812 -7.035156 18.960938 -7.601562 19.015625 -7.8125 L 20.484375 -7.8125 C 18.472656 -4.613281 16.460938 -2.359375 14.453125 -1.046875 C 12.441406 0.265625 10.613281 0.921875 8.96875 0.921875 C 8.09375 0.921875 7.289062 0.585938 6.5625 -0.078125 C 5.84375 -0.742188 5.484375 -1.773438 5.484375 -3.171875 C 5.484375 -4.097656 5.796875 -5.71875 6.421875 -8.03125 L 13.296875 -32.078125 L 7.5 -32.078125 L 8.03125 -33.765625 C 11.070312 -34.285156 13.554688 -35.457031 15.484375 -37.28125 C 17.421875 -39.113281 19.265625 -41.316406 21.015625 -43.890625 Z M 21.015625 -43.890625 "/></g></g></g><g fill="#1b1b1b" fill-opacity="1"><g transform="translate(198.390733, 56.788164)"><g><path d="M 24.03125 -35.3125 C 25.425781 -35.3125 26.6875 -34.832031 27.8125 -33.875 C 28.945312 -32.925781 29.644531 -31.601562 29.90625 -29.90625 L 30.0625 -29.90625 L 31.296875 -34.46875 L 37.40625 -35.3125 L 29.4375 -7.421875 C 29.382812 -7.316406 29.253906 -6.925781 29.046875 -6.25 C 28.847656 -5.582031 28.75 -4.914062 28.75 -4.25 C 28.75 -3.832031 28.847656 -3.507812 29.046875 -3.28125 C 29.253906 -3.050781 29.488281 -2.9375 29.75 -2.9375 C 30.425781 -2.9375 31.273438 -3.398438 32.296875 -4.328125 C 33.328125 -5.253906 34.304688 -6.539062 35.234375 -8.1875 L 36.40625 -7.421875 C 35.007812 -4.847656 33.242188 -2.8125 31.109375 -1.3125 C 28.972656 0.175781 27.078125 0.921875 25.421875 0.921875 C 24.492188 0.921875 23.796875 0.585938 23.328125 -0.078125 C 22.867188 -0.742188 22.640625 -1.566406 22.640625 -2.546875 C 22.640625 -3.222656 22.78125 -4.316406 23.0625 -5.828125 C 23.351562 -7.347656 23.804688 -8.882812 24.421875 -10.4375 L 24.265625 -10.59375 C 18.492188 -2.914062 13.265625 0.921875 8.578125 0.921875 C 6.515625 0.921875 4.878906 0.0351562 3.671875 -1.734375 C 2.460938 -3.515625 1.859375 -5.5625 1.859375 -7.875 C 1.859375 -11.894531 3.03125 -16.054688 5.375 -20.359375 C 7.71875 -24.660156 10.625 -28.226562 14.09375 -31.0625 C 17.570312 -33.894531 20.882812 -35.3125 24.03125 -35.3125 Z M 8.03125 -9.34375 C 8.03125 -7.34375 8.492188 -5.878906 9.421875 -4.953125 C 10.347656 -4.023438 11.429688 -3.5625 12.671875 -3.5625 C 14.265625 -3.5625 15.988281 -4.28125 17.84375 -5.71875 C 19.707031 -7.15625 21.421875 -8.992188 22.984375 -11.234375 C 24.554688 -13.484375 25.726562 -15.765625 26.5 -18.078125 C 27.28125 -20.347656 27.847656 -22.21875 28.203125 -23.6875 C 28.566406 -25.15625 28.75 -26.582031 28.75 -27.96875 C 28.75 -29.976562 28.285156 -31.457031 27.359375 -32.40625 C 26.429688 -33.363281 25.347656 -33.84375 24.109375 -33.84375 C 21.691406 -33.84375 19.234375 -32.363281 16.734375 -29.40625 C 14.234375 -26.445312 12.15625 -22.984375 10.5 -19.015625 C 8.851562 -15.046875 8.03125 -11.820312 8.03125 -9.34375 Z M 8.03125 -9.34375 "/></g></g></g><g fill="#1b1b1b" fill-opacity="1"><g transform="translate(231.618553, 56.788164)"><g><path d="M 10.734375 -8.65625 C 10.378906 -7.414062 10.109375 -6.421875 9.921875 -5.671875 C 9.742188 -4.929688 9.65625 -4.300781 9.65625 -3.78125 C 9.65625 -3.425781 9.742188 -3.15625 9.921875 -2.96875 C 10.109375 -2.789062 10.28125 -2.703125 10.4375 -2.703125 C 11.050781 -2.703125 12.101562 -3.445312 13.59375 -4.9375 C 15.09375 -6.4375 16.023438 -7.492188 16.390625 -8.109375 L 17.625 -7.421875 C 15.96875 -5.148438 14.160156 -3.191406 12.203125 -1.546875 C 10.253906 0.0976562 8.425781 0.921875 6.71875 0.921875 C 4.65625 0.921875 3.625 -0.285156 3.625 -2.703125 C 3.625 -3.679688 3.832031 -4.890625 4.25 -6.328125 C 4.664062 -7.773438 4.945312 -8.734375 5.09375 -9.203125 L 16.078125 -47.375 C 16.378906 -48.5625 16.53125 -49.488281 16.53125 -50.15625 C 16.53125 -50.820312 16.296875 -51.359375 15.828125 -51.765625 C 15.367188 -52.179688 14.78125 -52.390625 14.0625 -52.390625 C 13.082031 -52.390625 12.207031 -52.316406 11.4375 -52.171875 L 11.4375 -53.640625 L 22.796875 -55.40625 L 24.109375 -55.40625 L 11.75 -12.140625 C 11.226562 -10.273438 10.890625 -9.113281 10.734375 -8.65625 Z M 10.734375 -8.65625 "/></g></g></g></g></g><g transform="matrix(1, 0, 0, 1, 325, 15)"><g clip-path="url(#a72710c4e3)"><g fill="#1b1b1b" fill-opacity="1"><g transform="translate(1.813146, 84.033227)"><g><path d="M 4.859375 0 L 4.859375 -12.0625 L 17.328125 -12.0625 L 17.328125 0 Z M 4.859375 0 "/></g></g></g><g fill="#1b1b1b" fill-opacity="1"><g transform="translate(11.77501, 84.033227)"><g><path d="M 21.34375 0 L 21.34375 -49.734375 L 1.171875 -49.734375 L 1.171875 -59.015625 L 52.578125 -59.015625 L 52.578125 -49.734375 L 32.40625 -49.734375 L 32.40625 0 Z M 21.34375 0 "/></g></g></g><g fill="#1b1b1b" fill-opacity="1"><g transform="translate(52.208627, 84.033227)"><g><path d="M 25.109375 0.84375 C 20.753906 0.84375 16.972656 -0.0351562 13.765625 -1.796875 C 10.554688 -3.554688 8.070312 -6.054688 6.3125 -9.296875 C 4.5625 -12.535156 3.6875 -16.328125 3.6875 -20.671875 C 3.6875 -25.085938 4.5625 -28.898438 6.3125 -32.109375 C 8.070312 -35.316406 10.554688 -37.796875 13.765625 -39.546875 C 16.972656 -41.304688 20.753906 -42.1875 25.109375 -42.1875 C 29.523438 -42.1875 33.320312 -41.304688 36.5 -39.546875 C 39.675781 -37.796875 42.144531 -35.300781 43.90625 -32.0625 C 45.664062 -28.820312 46.546875 -25.023438 46.546875 -20.671875 C 46.546875 -16.328125 45.664062 -12.535156 43.90625 -9.296875 C 42.144531 -6.054688 39.675781 -3.554688 36.5 -1.796875 C 33.320312 -0.0351562 29.523438 0.84375 25.109375 0.84375 Z M 25.109375 -7.703125 C 28.410156 -7.703125 31.007812 -8.832031 32.90625 -11.09375 C 34.800781 -13.351562 35.75 -16.578125 35.75 -20.765625 C 35.75 -24.953125 34.800781 -28.144531 32.90625 -30.34375 C 31.007812 -32.550781 28.410156 -33.65625 25.109375 -33.65625 C 21.878906 -33.65625 19.300781 -32.550781 17.375 -30.34375 C 15.445312 -28.144531 14.484375 -24.953125 14.484375 -20.765625 C 14.484375 -16.578125 15.445312 -13.351562 17.375 -11.09375 C 19.300781 -8.832031 21.878906 -7.703125 25.109375 -7.703125 Z M 25.109375 -7.703125 "/></g></g></g><g fill="#1b1b1b" fill-opacity="1"><g transform="translate(95.739638, 84.033227)"><g><path d="M 25.109375 0.84375 C 20.753906 0.84375 16.972656 -0.0351562 13.765625 -1.796875 C 10.554688 -3.554688 8.070312 -6.054688 6.3125 -9.296875 C 4.5625 -12.535156 3.6875 -16.328125 3.6875 -20.671875 C 3.6875 -25.085938 4.5625 -28.898438 6.3125 -32.109375 C 8.070312 -35.316406 10.554688 -37.796875 13.765625 -39.546875 C 16.972656 -41.304688 20.753906 -42.1875 25.109375 -42.1875 C 29.523438 -42.1875 33.320312 -41.304688 36.5 -39.546875 C 39.675781 -37.796875 42.144531 -35.300781 43.90625 -32.0625 C 45.664062 -28.820312 46.546875 -25.023438 46.546875 -20.671875 C 46.546875 -16.328125 45.664062 -12.535156 43.90625 -9.296875 C 42.144531 -6.054688 39.675781 -3.554688 36.5 -1.796875 C 33.320312 -0.0351562 29.523438 0.84375 25.109375 0.84375 Z M 25.109375 -7.703125 C 28.410156 -7.703125 31.007812 -8.832031 32.90625 -11.09375 C 34.800781 -13.351562 35.75 -16.578125 35.75 -20.765625 C 35.75 -24.953125 34.800781 -28.144531 32.90625 -30.34375 C 31.007812 -32.550781 28.410156 -33.65625 25.109375 -33.65625 C 21.878906 -33.65625 19.300781 -32.550781 17.375 -30.34375 C 15.445312 -28.144531 14.484375 -24.953125 14.484375 -20.765625 C 14.484375 -16.578125 15.445312 -13.351562 17.375 -11.09375 C 19.300781 -8.832031 21.878906 -7.703125 25.109375 -7.703125 Z M 25.109375 -7.703125 "/></g></g></g><g fill="#1b1b1b" fill-opacity="1"><g transform="translate(139.270649, 84.033227)"><g><path d="M 20.34375 0.84375 C 15.539062 0.84375 11.9375 -0.453125 9.53125 -3.046875 C 7.132812 -5.648438 5.9375 -9.4375 5.9375 -14.40625 L 5.9375 -59.015625 L 16.828125 -59.015625 L 16.828125 -15.0625 C 16.828125 -13.5 17.050781 -12.1875 17.5 -11.125 C 17.945312 -10.070312 18.613281 -9.265625 19.5 -8.703125 C 20.394531 -8.148438 21.484375 -7.875 22.765625 -7.875 C 23.492188 -7.875 24.191406 -7.914062 24.859375 -8 C 25.535156 -8.082031 26.207031 -8.207031 26.875 -8.375 L 27.046875 -0.078125 C 25.921875 0.191406 24.828125 0.410156 23.765625 0.578125 C 22.710938 0.753906 21.570312 0.84375 20.34375 0.84375 Z M 20.34375 0.84375 "/></g></g></g><g fill="#1b1b1b" fill-opacity="1"><g transform="translate(160.115283, 84.033227)"><g><path d="M 21.6875 0.84375 C 19.28125 0.84375 16.960938 0.644531 14.734375 0.25 C 12.503906 -0.132812 10.453125 -0.660156 8.578125 -1.328125 C 6.710938 -2.003906 5.082031 -2.875 3.6875 -3.9375 L 6.53125 -11.21875 C 7.925781 -10.320312 9.457031 -9.550781 11.125 -8.90625 C 12.800781 -8.269531 14.53125 -7.796875 16.3125 -7.484375 C 18.101562 -7.179688 19.835938 -7.03125 21.515625 -7.03125 C 24.421875 -7.03125 26.582031 -7.429688 28 -8.234375 C 29.425781 -9.046875 30.140625 -10.207031 30.140625 -11.71875 C 30.140625 -13 29.707031 -13.972656 28.84375 -14.640625 C 27.976562 -15.316406 26.597656 -15.796875 24.703125 -16.078125 L 15.90625 -17.578125 C 12.21875 -18.191406 9.425781 -19.503906 7.53125 -21.515625 C 5.632812 -23.523438 4.6875 -26.035156 4.6875 -29.046875 C 4.6875 -31.671875 5.410156 -33.957031 6.859375 -35.90625 C 8.316406 -37.863281 10.410156 -39.398438 13.140625 -40.515625 C 15.878906 -41.628906 19.117188 -42.1875 22.859375 -42.1875 C 24.867188 -42.1875 26.863281 -42.003906 28.84375 -41.640625 C 30.820312 -41.285156 32.660156 -40.757812 34.359375 -40.0625 C 36.066406 -39.363281 37.535156 -38.484375 38.765625 -37.421875 L 35.75 -30.140625 C 34.6875 -31.035156 33.425781 -31.785156 31.96875 -32.390625 C 30.519531 -33.003906 29.015625 -33.476562 27.453125 -33.8125 C 25.890625 -34.15625 24.382812 -34.328125 22.9375 -34.328125 C 20.03125 -34.328125 17.878906 -33.894531 16.484375 -33.03125 C 15.097656 -32.164062 14.40625 -30.976562 14.40625 -29.46875 C 14.40625 -28.238281 14.804688 -27.273438 15.609375 -26.578125 C 16.421875 -25.878906 17.691406 -25.390625 19.421875 -25.109375 L 28.046875 -23.609375 C 32.003906 -22.941406 34.957031 -21.671875 36.90625 -19.796875 C 38.863281 -17.929688 39.84375 -15.40625 39.84375 -12.21875 C 39.84375 -9.488281 39.085938 -7.144531 37.578125 -5.1875 C 36.078125 -3.238281 33.972656 -1.742188 31.265625 -0.703125 C 28.554688 0.328125 25.363281 0.84375 21.6875 0.84375 Z M 21.6875 0.84375 "/></g></g></g></g></g><g transform="matrix(1, 0, 0, 1, 27, 115)"><g clip-path="url(#39c0c25bbd)"><g fill="#1b1b1b" fill-opacity="1"><g transform="translate(1.680019, 21.137141)"><g><path d="M 5.46875 0 L 5.46875 -12.75 L 0.296875 -12.75 L 0.296875 -15.125 L 13.46875 -15.125 L 13.46875 -12.75 L 8.296875 -12.75 L 8.296875 0 Z M 5.46875 0 "/></g></g></g><g fill="#1b1b1b" fill-opacity="1"><g transform="translate(17.58014, 21.137141)"><g><path d="M 1.828125 0 L 1.828125 -15.125 L 4.65625 -15.125 L 4.65625 -8.859375 L 12.328125 -8.859375 L 12.328125 -15.125 L 15.171875 -15.125 L 15.171875 0 L 12.328125 0 L 12.328125 -6.484375 L 4.65625 -6.484375 L 4.65625 0 Z M 1.828125 0 "/></g></g></g><g fill="#1b1b1b" fill-opacity="1"><g transform="translate(36.720202, 21.137141)"><g><path d="M 1.828125 0 L 1.828125 -15.125 L 12.0625 -15.125 L 12.0625 -12.828125 L 4.5625 -12.828125 L 4.5625 -8.8125 L 11.578125 -8.8125 L 11.578125 -6.515625 L 4.5625 -6.515625 L 4.5625 -2.296875 L 12.0625 -2.296875 L 12.0625 0 Z M 1.828125 0 "/></g></g></g><g fill="#1b1b1b" fill-opacity="1"><g transform="translate(52.234116, 21.137141)"><g/></g></g><g fill="#1b1b1b" fill-opacity="1"><g transform="translate(60.431346, 21.137141)"><g><path d="M 1.828125 0 L 1.828125 -15.125 L 11.921875 -15.125 L 11.921875 -12.828125 L 4.65625 -12.828125 L 4.65625 -8.6875 L 11.484375 -8.6875 L 11.484375 -6.375 L 4.65625 -6.375 L 4.65625 0 Z M 1.828125 0 "/></g></g></g><g fill="#1b1b1b" fill-opacity="1"><g transform="translate(75.194291, 21.137141)"><g><path d="M 8.09375 0.21875 C 6.019531 0.21875 4.429688 -0.3125 3.328125 -1.375 C 2.222656 -2.445312 1.671875 -4.023438 1.671875 -6.109375 L 1.671875 -15.125 L 4.5 -15.125 L 4.5 -6.171875 C 4.5 -4.859375 4.804688 -3.878906 5.421875 -3.234375 C 6.035156 -2.597656 6.925781 -2.28125 8.09375 -2.28125 C 9.257812 -2.28125 10.144531 -2.597656 10.75 -3.234375 C 11.363281 -3.878906 11.671875 -4.859375 11.671875 -6.171875 L 11.671875 -15.125 L 14.484375 -15.125 L 14.484375 -6.109375 C 14.484375 -4.035156 13.9375 -2.460938 12.84375 -1.390625 C 11.757812 -0.316406 10.175781 0.21875 8.09375 0.21875 Z M 8.09375 0.21875 "/></g></g></g><g fill="#1b1b1b" fill-opacity="1"><g transform="translate(93.497555, 21.137141)"><g><path d="M 5.46875 0 L 5.46875 -12.75 L 0.296875 -12.75 L 0.296875 -15.125 L 13.46875 -15.125 L 13.46875 -12.75 L 8.296875 -12.75 L 8.296875 0 Z M 5.46875 0 "/></g></g></g><g fill="#1b1b1b" fill-opacity="1"><g transform="translate(109.397675, 21.137141)"><g><path d="M 8.09375 0.21875 C 6.019531 0.21875 4.429688 -0.3125 3.328125 -1.375 C 2.222656 -2.445312 1.671875 -4.023438 1.671875 -6.109375 L 1.671875 -15.125 L 4.5 -15.125 L 4.5 -6.171875 C 4.5 -4.859375 4.804688 -3.878906 5.421875 -3.234375 C 6.035156 -2.597656 6.925781 -2.28125 8.09375 -2.28125 C 9.257812 -2.28125 10.144531 -2.597656 10.75 -3.234375 C 11.363281 -3.878906 11.671875 -4.859375 11.671875 -6.171875 L 11.671875 -15.125 L 14.484375 -15.125 L 14.484375 -6.109375 C 14.484375 -4.035156 13.9375 -2.460938 12.84375 -1.390625 C 11.757812 -0.316406 10.175781 0.21875 8.09375 0.21875 Z M 8.09375 0.21875 "/></g></g></g><g fill="#1b1b1b" fill-opacity="1"><g transform="translate(127.70094, 21.137141)"><g><path d="M 1.828125 0 L 1.828125 -15.125 L 8.5 -15.125 C 10.1875 -15.125 11.484375 -14.726562 12.390625 -13.9375 C 13.296875 -13.15625 13.75 -12.039062 13.75 -10.59375 C 13.75 -9.726562 13.5625 -8.976562 13.1875 -8.34375 C 12.820312 -7.71875 12.300781 -7.226562 11.625 -6.875 C 10.957031 -6.519531 10.148438 -6.316406 9.203125 -6.265625 L 9.328125 -6.4375 L 9.84375 -6.421875 C 10.320312 -6.390625 10.742188 -6.238281 11.109375 -5.96875 C 11.472656 -5.707031 11.800781 -5.289062 12.09375 -4.71875 L 14.65625 0 L 11.546875 0 L 9.015625 -4.71875 C 8.835938 -5.050781 8.640625 -5.304688 8.421875 -5.484375 C 8.210938 -5.660156 7.972656 -5.785156 7.703125 -5.859375 C 7.429688 -5.929688 7.113281 -5.96875 6.75 -5.96875 L 4.65625 -5.96875 L 4.65625 0 Z M 4.65625 -8.109375 L 8.09375 -8.109375 C 9.0625 -8.109375 9.785156 -8.304688 10.265625 -8.703125 C 10.742188 -9.109375 10.984375 -9.710938 10.984375 -10.515625 C 10.984375 -11.296875 10.738281 -11.878906 10.25 -12.265625 C 9.769531 -12.648438 9.039062 -12.84375 8.0625 -12.84375 L 4.65625 -12.84375 Z M 4.65625 -8.109375 "/></g></g></g><g fill="#1b1b1b" fill-opacity="1"><g transform="translate(145.060108, 21.137141)"><g><path d="M 1.828125 0 L 1.828125 -15.125 L 12.0625 -15.125 L 12.0625 -12.828125 L 4.5625 -12.828125 L 4.5625 -8.8125 L 11.578125 -8.8125 L 11.578125 -6.515625 L 4.5625 -6.515625 L 4.5625 -2.296875 L 12.0625 -2.296875 L 12.0625 0 Z M 1.828125 0 "/></g></g></g><g fill="#1b1b1b" fill-opacity="1"><g transform="translate(160.574021, 21.137141)"><g/></g></g><g fill="#1b1b1b" fill-opacity="1"><g transform="translate(168.771252, 21.137141)"><g><path d="M 8.640625 0.21875 C 7.523438 0.21875 6.515625 0.0351562 5.609375 -0.328125 C 4.710938 -0.691406 3.941406 -1.210938 3.296875 -1.890625 C 2.660156 -2.578125 2.171875 -3.398438 1.828125 -4.359375 C 1.484375 -5.316406 1.3125 -6.390625 1.3125 -7.578125 C 1.3125 -8.765625 1.484375 -9.832031 1.828125 -10.78125 C 2.171875 -11.726562 2.660156 -12.539062 3.296875 -13.21875 C 3.941406 -13.90625 4.710938 -14.429688 5.609375 -14.796875 C 6.515625 -15.160156 7.523438 -15.34375 8.640625 -15.34375 C 9.742188 -15.34375 10.742188 -15.160156 11.640625 -14.796875 C 12.546875 -14.429688 13.320312 -13.910156 13.96875 -13.234375 C 14.613281 -12.566406 15.109375 -11.753906 15.453125 -10.796875 C 15.796875 -9.847656 15.96875 -8.78125 15.96875 -7.59375 C 15.96875 -6.40625 15.796875 -5.332031 15.453125 -4.375 C 15.109375 -3.414062 14.613281 -2.59375 13.96875 -1.90625 C 13.320312 -1.21875 12.546875 -0.691406 11.640625 -0.328125 C 10.742188 0.0351562 9.742188 0.21875 8.640625 0.21875 Z M 8.640625 -2.234375 C 9.578125 -2.234375 10.367188 -2.4375 11.015625 -2.84375 C 11.671875 -3.257812 12.171875 -3.867188 12.515625 -4.671875 C 12.867188 -5.472656 13.046875 -6.441406 13.046875 -7.578125 C 13.046875 -8.722656 12.875 -9.691406 12.53125 -10.484375 C 12.1875 -11.273438 11.6875 -11.875 11.03125 -12.28125 C 10.375 -12.6875 9.578125 -12.890625 8.640625 -12.890625 C 7.710938 -12.890625 6.921875 -12.6875 6.265625 -12.28125 C 5.609375 -11.875 5.101562 -11.273438 4.75 -10.484375 C 4.394531 -9.691406 4.21875 -8.722656 4.21875 -7.578125 C 4.21875 -6.441406 4.394531 -5.472656 4.75 -4.671875 C 5.101562 -3.867188 5.609375 -3.257812 6.265625 -2.84375 C 6.921875 -2.4375 7.710938 -2.234375 8.640625 -2.234375 Z M 8.640625 -2.234375 "/></g></g></g><g fill="#1b1b1b" fill-opacity="1"><g transform="translate(188.190247, 21.137141)"><g><path d="M 1.828125 0 L 1.828125 -15.125 L 11.921875 -15.125 L 11.921875 -12.828125 L 4.65625 -12.828125 L 4.65625 -8.6875 L 11.484375 -8.6875 L 11.484375 -6.375 L 4.65625 -6.375 L 4.65625 0 Z M 1.828125 0 "/></g></g></g><g fill="#1b1b1b" fill-opacity="1"><g transform="translate(202.953191, 21.137141)"><g/></g></g><g fill="#1b1b1b" fill-opacity="1"><g transform="translate(211.150422, 21.137141)"><g><path d="M 1.828125 0 L 1.828125 -15.125 L 8.515625 -15.125 C 9.628906 -15.125 10.578125 -14.9375 11.359375 -14.5625 C 12.140625 -14.195312 12.734375 -13.660156 13.140625 -12.953125 C 13.546875 -12.242188 13.75 -11.390625 13.75 -10.390625 C 13.75 -9.410156 13.546875 -8.5625 13.140625 -7.84375 C 12.734375 -7.132812 12.140625 -6.585938 11.359375 -6.203125 C 10.578125 -5.816406 9.628906 -5.625 8.515625 -5.625 L 4.65625 -5.625 L 4.65625 0 Z M 4.65625 -7.875 L 8.0625 -7.875 C 9.019531 -7.875 9.742188 -8.082031 10.234375 -8.5 C 10.734375 -8.914062 10.984375 -9.546875 10.984375 -10.390625 C 10.984375 -11.210938 10.734375 -11.828125 10.234375 -12.234375 C 9.742188 -12.640625 9.019531 -12.84375 8.0625 -12.84375 L 4.65625 -12.84375 Z M 4.65625 -7.875 "/></g></g></g><g fill="#1b1b1b" fill-opacity="1"><g transform="translate(227.84445, 21.137141)"><g><path d="M 1.828125 0 L 1.828125 -15.125 L 8.5 -15.125 C 10.1875 -15.125 11.484375 -14.726562 12.390625 -13.9375 C 13.296875 -13.15625 13.75 -12.039062 13.75 -10.59375 C 13.75 -9.726562 13.5625 -8.976562 13.1875 -8.34375 C 12.820312 -7.71875 12.300781 -7.226562 11.625 -6.875 C 10.957031 -6.519531 10.148438 -6.316406 9.203125 -6.265625 L 9.328125 -6.4375 L 9.84375 -6.421875 C 10.320312 -6.390625 10.742188 -6.238281 11.109375 -5.96875 C 11.472656 -5.707031 11.800781 -5.289062 12.09375 -4.71875 L 14.65625 0 L 11.546875 0 L 9.015625 -4.71875 C 8.835938 -5.050781 8.640625 -5.304688 8.421875 -5.484375 C 8.210938 -5.660156 7.972656 -5.785156 7.703125 -5.859375 C 7.429688 -5.929688 7.113281 -5.96875 6.75 -5.96875 L 4.65625 -5.96875 L 4.65625 0 Z M 4.65625 -8.109375 L 8.09375 -8.109375 C 9.0625 -8.109375 9.785156 -8.304688 10.265625 -8.703125 C 10.742188 -9.109375 10.984375 -9.710938 10.984375 -10.515625 C 10.984375 -11.296875 10.738281 -11.878906 10.25 -12.265625 C 9.769531 -12.648438 9.039062 -12.84375 8.0625 -12.84375 L 4.65625 -12.84375 Z M 4.65625 -8.109375 "/></g></g></g><g fill="#1b1b1b" fill-opacity="1"><g transform="translate(245.096319, 21.137141)"><g><path d="M 8.640625 0.21875 C 7.523438 0.21875 6.515625 0.0351562 5.609375 -0.328125 C 4.710938 -0.691406 3.941406 -1.210938 3.296875 -1.890625 C 2.660156 -2.578125 2.171875 -3.398438 1.828125 -4.359375 C 1.484375 -5.316406 1.3125 -6.390625 1.3125 -7.578125 C 1.3125 -8.765625 1.484375 -9.832031 1.828125 -10.78125 C 2.171875 -11.726562 2.660156 -12.539062 3.296875 -13.21875 C 3.941406 -13.90625 4.710938 -14.429688 5.609375 -14.796875 C 6.515625 -15.160156 7.523438 -15.34375 8.640625 -15.34375 C 9.742188 -15.34375 10.742188 -15.160156 11.640625 -14.796875 C 12.546875 -14.429688 13.320312 -13.910156 13.96875 -13.234375 C 14.613281 -12.566406 15.109375 -11.753906 15.453125 -10.796875 C 15.796875 -9.847656 15.96875 -8.78125 15.96875 -7.59375 C 15.96875 -6.40625 15.796875 -5.332031 15.453125 -4.375 C 15.109375 -3.414062 14.613281 -2.59375 13.96875 -1.90625 C 13.320312 -1.21875 12.546875 -0.691406 11.640625 -0.328125 C 10.742188 0.0351562 9.742188 0.21875 8.640625 0.21875 Z M 8.640625 -2.234375 C 9.578125 -2.234375 10.367188 -2.4375 11.015625 -2.84375 C 11.671875 -3.257812 12.171875 -3.867188 12.515625 -4.671875 C 12.867188 -5.472656 13.046875 -6.441406 13.046875 -7.578125 C 13.046875 -8.722656 12.875 -9.691406 12.53125 -10.484375 C 12.1875 -11.273438 11.6875 -11.875 11.03125 -12.28125 C 10.375 -12.6875 9.578125 -12.890625 8.640625 -12.890625 C 7.710938 -12.890625 6.921875 -12.6875 6.265625 -12.28125 C 5.609375 -11.875 5.101562 -11.273438 4.75 -10.484375 C 4.394531 -9.691406 4.21875 -8.722656 4.21875 -7.578125 C 4.21875 -6.441406 4.394531 -5.472656 4.75 -4.671875 C 5.101562 -3.867188 5.609375 -3.257812 6.265625 -2.84375 C 6.921875 -2.4375 7.710938 -2.234375 8.640625 -2.234375 Z M 8.640625 -2.234375 "/></g></g></g><g fill="#1b1b1b" fill-opacity="1"><g transform="translate(264.515314, 21.137141)"><g><path d="M 1.828125 0 L 1.828125 -15.125 L 8.515625 -15.125 C 9.628906 -15.125 10.578125 -14.9375 11.359375 -14.5625 C 12.140625 -14.195312 12.734375 -13.660156 13.140625 -12.953125 C 13.546875 -12.242188 13.75 -11.390625 13.75 -10.390625 C 13.75 -9.410156 13.546875 -8.5625 13.140625 -7.84375 C 12.734375 -7.132812 12.140625 -6.585938 11.359375 -6.203125 C 10.578125 -5.816406 9.628906 -5.625 8.515625 -5.625 L 4.65625 -5.625 L 4.65625 0 Z M 4.65625 -7.875 L 8.0625 -7.875 C 9.019531 -7.875 9.742188 -8.082031 10.234375 -8.5 C 10.734375 -8.914062 10.984375 -9.546875 10.984375 -10.390625 C 10.984375 -11.210938 10.734375 -11.828125 10.234375 -12.234375 C 9.742188 -12.640625 9.019531 -12.84375 8.0625 -12.84375 L 4.65625 -12.84375 Z M 4.65625 -7.875 "/></g></g></g><g fill="#1b1b1b" fill-opacity="1"><g transform="translate(281.209342, 21.137141)"><g><path d="M 1.828125 0 L 1.828125 -15.125 L 12.0625 -15.125 L 12.0625 -12.828125 L 4.5625 -12.828125 L 4.5625 -8.8125 L 11.578125 -8.8125 L 11.578125 -6.515625 L 4.5625 -6.515625 L 4.5625 -2.296875 L 12.0625 -2.296875 L 12.0625 0 Z M 1.828125 0 "/></g></g></g><g fill="#1b1b1b" fill-opacity="1"><g transform="translate(296.723256, 21.137141)"><g><path d="M 1.828125 0 L 1.828125 -15.125 L 8.5 -15.125 C 10.1875 -15.125 11.484375 -14.726562 12.390625 -13.9375 C 13.296875 -13.15625 13.75 -12.039062 13.75 -10.59375 C 13.75 -9.726562 13.5625 -8.976562 13.1875 -8.34375 C 12.820312 -7.71875 12.300781 -7.226562 11.625 -6.875 C 10.957031 -6.519531 10.148438 -6.316406 9.203125 -6.265625 L 9.328125 -6.4375 L 9.84375 -6.421875 C 10.320312 -6.390625 10.742188 -6.238281 11.109375 -5.96875 C 11.472656 -5.707031 11.800781 -5.289062 12.09375 -4.71875 L 14.65625 0 L 11.546875 0 L 9.015625 -4.71875 C 8.835938 -5.050781 8.640625 -5.304688 8.421875 -5.484375 C 8.210938 -5.660156 7.972656 -5.785156 7.703125 -5.859375 C 7.429688 -5.929688 7.113281 -5.96875 6.75 -5.96875 L 4.65625 -5.96875 L 4.65625 0 Z M 4.65625 -8.109375 L 8.09375 -8.109375 C 9.0625 -8.109375 9.785156 -8.304688 10.265625 -8.703125 C 10.742188 -9.109375 10.984375 -9.710938 10.984375 -10.515625 C 10.984375 -11.296875 10.738281 -11.878906 10.25 -12.265625 C 9.769531 -12.648438 9.039062 -12.84375 8.0625 -12.84375 L 4.65625 -12.84375 Z M 4.65625 -8.109375 "/></g></g></g><g fill="#1b1b1b" fill-opacity="1"><g transform="translate(313.653228, 21.137141)"><g><path d="M 5.46875 0 L 5.46875 -12.75 L 0.296875 -12.75 L 0.296875 -15.125 L 13.46875 -15.125 L 13.46875 -12.75 L 8.296875 -12.75 L 8.296875 0 Z M 5.46875 0 "/></g></g></g><g fill="#1b1b1b" fill-opacity="1"><g transform="translate(329.83233, 21.137141)"><g><path d="M 5.359375 0 L 5.359375 -7.8125 L 5.921875 -6 L -0.40625 -15.125 L 2.8125 -15.125 L 7 -9.03125 L 6.625 -9.03125 L 10.8125 -15.125 L 13.9375 -15.125 L 7.640625 -6 L 8.1875 -7.8125 L 8.1875 0 Z M 5.359375 0 "/></g></g></g><g fill="#1b1b1b" fill-opacity="1"><g transform="translate(345.539347, 21.137141)"><g/></g></g><g fill="#1b1b1b" fill-opacity="1"><g transform="translate(353.736578, 21.137141)"><g><path d="M 1.859375 0 L 1.859375 -15.125 L 4.5625 -15.125 L 9.875 -5 L 9.453125 -5 L 14.765625 -15.125 L 17.421875 -15.125 L 17.421875 0 L 14.78125 0 L 14.78125 -10.921875 L 15.0625 -10.921875 L 10.53125 -2.359375 L 8.75 -2.359375 L 4.1875 -10.9375 L 4.484375 -10.9375 L 4.484375 0 Z M 1.859375 0 "/></g></g></g><g fill="#1b1b1b" fill-opacity="1"><g transform="translate(375.151041, 21.137141)"><g><path d="M 0.171875 0 L 7 -15.125 L 9.390625 -15.125 L 16.21875 0 L 13.328125 0 L 11.5 -4.25 L 12.703125 -3.375 L 3.640625 -3.375 L 4.84375 -4.25 L 3.046875 0 Z M 8.15625 -12.09375 L 5.15625 -5 L 4.59375 -5.65625 L 11.75 -5.65625 L 11.21875 -5 L 8.21875 -12.09375 Z M 8.15625 -12.09375 "/></g></g></g><g fill="#1b1b1b" fill-opacity="1"><g transform="translate(393.668878, 21.137141)"><g><path d="M 1.828125 0 L 1.828125 -15.125 L 4.078125 -15.125 L 12.53125 -4.046875 L 12.1875 -4.046875 L 12.1875 -15.125 L 14.859375 -15.125 L 14.859375 0 L 12.546875 0 L 4.1875 -11.03125 L 4.484375 -11.03125 L 4.484375 0 Z M 1.828125 0 "/></g></g></g><g fill="#1b1b1b" fill-opacity="1"><g transform="translate(412.508563, 21.137141)"><g><path d="M 0.171875 0 L 7 -15.125 L 9.390625 -15.125 L 16.21875 0 L 13.328125 0 L 11.5 -4.25 L 12.703125 -3.375 L 3.640625 -3.375 L 4.84375 -4.25 L 3.046875 0 Z M 8.15625 -12.09375 L 5.15625 -5 L 4.59375 -5.65625 L 11.75 -5.65625 L 11.21875 -5 L 8.21875 -12.09375 Z M 8.15625 -12.09375 "/></g></g></g><g fill="#1b1b1b" fill-opacity="1"><g transform="translate(430.704505, 21.137141)"><g><path d="M 9.046875 0.21875 C 7.410156 0.21875 6.015625 -0.09375 4.859375 -0.71875 C 3.703125 -1.351562 2.820312 -2.25 2.21875 -3.40625 C 1.613281 -4.570312 1.3125 -5.953125 1.3125 -7.546875 C 1.3125 -9.148438 1.617188 -10.535156 2.234375 -11.703125 C 2.847656 -12.867188 3.726562 -13.765625 4.875 -14.390625 C 6.03125 -15.023438 7.410156 -15.34375 9.015625 -15.34375 C 9.742188 -15.34375 10.441406 -15.273438 11.109375 -15.140625 C 11.785156 -15.003906 12.40625 -14.8125 12.96875 -14.5625 C 13.53125 -14.3125 14.015625 -14 14.421875 -13.625 L 13.5 -11.4375 C 12.8125 -11.945312 12.109375 -12.3125 11.390625 -12.53125 C 10.671875 -12.757812 9.882812 -12.875 9.03125 -12.875 C 7.488281 -12.875 6.300781 -12.414062 5.46875 -11.5 C 4.632812 -10.59375 4.21875 -9.273438 4.21875 -7.546875 C 4.21875 -5.773438 4.640625 -4.441406 5.484375 -3.546875 C 6.328125 -2.648438 7.570312 -2.203125 9.21875 -2.203125 C 9.863281 -2.203125 10.484375 -2.253906 11.078125 -2.359375 C 11.671875 -2.472656 12.238281 -2.628906 12.78125 -2.828125 L 12.15625 -1.5625 L 12.15625 -6.140625 L 8.734375 -6.140625 L 8.734375 -8.328125 L 14.5625 -8.328125 L 14.5625 -0.90625 C 14.101562 -0.675781 13.570312 -0.476562 12.96875 -0.3125 C 12.363281 -0.144531 11.726562 -0.015625 11.0625 0.078125 C 10.394531 0.171875 9.722656 0.21875 9.046875 0.21875 Z M 9.046875 0.21875 "/></g></g></g><g fill="#1b1b1b" fill-opacity="1"><g transform="translate(449.093623, 21.137141)"><g><path d="M 1.828125 0 L 1.828125 -15.125 L 12.0625 -15.125 L 12.0625 -12.828125 L 4.5625 -12.828125 L 4.5625 -8.8125 L 11.578125 -8.8125 L 11.578125 -6.515625 L 4.5625 -6.515625 L 4.5625 -2.296875 L 12.0625 -2.296875 L 12.0625 0 Z M 1.828125 0 "/></g></g></g><g fill="#1b1b1b" fill-opacity="1"><g transform="translate(464.607536, 21.137141)"><g><path d="M 1.859375 0 L 1.859375 -15.125 L 4.5625 -15.125 L 9.875 -5 L 9.453125 -5 L 14.765625 -15.125 L 17.421875 -15.125 L 17.421875 0 L 14.78125 0 L 14.78125 -10.921875 L 15.0625 -10.921875 L 10.53125 -2.359375 L 8.75 -2.359375 L 4.1875 -10.9375 L 4.484375 -10.9375 L 4.484375 0 Z M 1.859375 0 "/></g></g></g><g fill="#1b1b1b" fill-opacity="1"><g transform="translate(486.021999, 21.137141)"><g><path d="M 1.828125 0 L 1.828125 -15.125 L 12.0625 -15.125 L 12.0625 -12.828125 L 4.5625 -12.828125 L 4.5625 -8.8125 L 11.578125 -8.8125 L 11.578125 -6.515625 L 4.5625 -6.515625 L 4.5625 -2.296875 L 12.0625 -2.296875 L 12.0625 0 Z M 1.828125 0 "/></g></g></g><g fill="#1b1b1b" fill-opacity="1"><g transform="translate(501.535913, 21.137141)"><g><path d="M 1.828125 0 L 1.828125 -15.125 L 4.078125 -15.125 L 12.53125 -4.046875 L 12.1875 -4.046875 L 12.1875 -15.125 L 14.859375 -15.125 L 14.859375 0 L 12.546875 0 L 4.1875 -11.03125 L 4.484375 -11.03125 L 4.484375 0 Z M 1.828125 0 "/></g></g></g><g fill="#1b1b1b" fill-opacity="1"><g transform="translate(520.375598, 21.137141)"><g><path d="M 5.46875 0 L 5.46875 -12.75 L 0.296875 -12.75 L 0.296875 -15.125 L 13.46875 -15.125 L 13.46875 -12.75 L 8.296875 -12.75 L 8.296875 0 Z M 5.46875 0 "/></g></g></g></g></g></svg>