<svg xmlns="http://www.w3.org/2000/svg" xmlns:xlink="http://www.w3.org/1999/xlink" width="803" zoomAndPan="magnify" viewBox="0 0 602.25 179.249993" height="239" preserveAspectRatio="xMidYMid meet" version="1.0"><defs><g/><clipPath id="a1699f931a"><rect x="0" width="257" y="0" height="80"/></clipPath><clipPath id="eb5cd3930d"><rect x="0" width="203" y="0" height="116"/></clipPath><clipPath id="b83fbe6a2c"><rect x="0" width="538" y="0" height="30"/></clipPath><clipPath id="d4e4d50386"><rect x="0" width="170" y="0" height="24"/></clipPath></defs><g transform="matrix(1, 0, 0, 1, 70, 42)"><g clip-path="url(#a1699f931a)"><g fill="#1b1b1b" fill-opacity="1"><g transform="translate(1.170019, 56.995255)"><g><path d="M 10.6875 -7.90625 L 45.6875 -53.359375 L 47.078125 -53.359375 L 43.515625 -9.75 C 43.410156 -8.101562 43.359375 -7.019531 43.359375 -6.5 C 43.359375 -3.09375 45.242188 -1.390625 49.015625 -1.390625 L 50.5625 -1.390625 L 50.171875 0 L 28.34375 0 L 28.734375 -1.390625 C 30.378906 -1.390625 31.679688 -1.53125 32.640625 -1.8125 C 33.597656 -2.101562 34.347656 -2.695312 34.890625 -3.59375 C 35.429688 -4.5 35.78125 -5.832031 35.9375 -7.59375 L 36.703125 -17.03125 L 21.140625 -17.03125 L 15.484375 -9.828125 C 14.347656 -8.441406 13.570312 -7.332031 13.15625 -6.5 C 12.75 -5.675781 12.546875 -4.90625 12.546875 -4.1875 C 12.546875 -2.425781 13.914062 -1.492188 16.65625 -1.390625 L 16.265625 0 L 1.078125 0 L 0.921875 -1.390625 C 4.128906 -1.441406 7.382812 -3.613281 10.6875 -7.90625 Z M 36.859375 -19.671875 L 38.5625 -39.640625 L 38.40625 -39.796875 L 23.078125 -19.671875 Z M 36.859375 -19.671875 "/></g></g></g><g fill="#1b1b1b" fill-opacity="1"><g transform="translate(51.42602, 56.995255)"><g><path d="M 18.4375 -50.875 C 19.519531 -50.875 20.445312 -50.484375 21.21875 -49.703125 C 21.988281 -48.929688 22.375 -48.03125 22.375 -47 C 22.375 -45.914062 21.988281 -44.988281 21.21875 -44.21875 C 20.445312 -43.445312 19.519531 -43.0625 18.4375 -43.0625 C 17.394531 -43.0625 16.488281 -43.445312 15.71875 -44.21875 C 14.945312 -44.988281 14.5625 -45.914062 14.5625 -47 C 14.5625 -48.03125 14.945312 -48.929688 15.71875 -49.703125 C 16.488281 -50.484375 17.394531 -50.875 18.4375 -50.875 Z M 10.84375 -6.890625 C 10.425781 -5.546875 10.21875 -4.617188 10.21875 -4.109375 C 10.21875 -3.273438 10.65625 -2.859375 11.53125 -2.859375 C 12.15625 -2.859375 13.019531 -3.335938 14.125 -4.296875 C 15.238281 -5.253906 16.390625 -6.660156 17.578125 -8.515625 L 18.8125 -7.75 C 17.113281 -5.113281 15.203125 -3.007812 13.078125 -1.4375 C 10.960938 0.132812 9.03125 0.921875 7.28125 0.921875 C 6.25 0.921875 5.460938 0.585938 4.921875 -0.078125 C 4.378906 -0.742188 4.109375 -1.644531 4.109375 -2.78125 C 4.109375 -3.613281 4.257812 -4.570312 4.5625 -5.65625 L 10.765625 -26.953125 C 11.128906 -28.242188 11.3125 -29.144531 11.3125 -29.65625 C 11.3125 -30.332031 11.078125 -30.925781 10.609375 -31.4375 C 10.140625 -31.957031 9.441406 -32.21875 8.515625 -32.21875 C 8.148438 -32.21875 7.171875 -32.085938 5.578125 -31.828125 L 5.96875 -33.140625 L 17.734375 -35.390625 L 19.046875 -35.390625 Z M 10.84375 -6.890625 "/></g></g></g><g fill="#1b1b1b" fill-opacity="1"><g transform="translate(66.990624, 56.995255)"><g><path d="M 53.28125 -40.734375 C 53.28125 -37.535156 52.015625 -34.539062 49.484375 -31.75 C 46.953125 -28.957031 43.101562 -27.019531 37.9375 -25.9375 L 46.46875 -7.96875 C 47.550781 -5.695312 48.6875 -4.046875 49.875 -3.015625 C 51.0625 -1.984375 52.789062 -1.441406 55.0625 -1.390625 L 54.59375 0 L 42.28125 0 L 30.28125 -25.40625 C 28.363281 -25.550781 27.148438 -25.675781 26.640625 -25.78125 C 26.429688 -25.78125 25.914062 -25.832031 25.09375 -25.9375 L 20.59375 -10.140625 C 20.4375 -9.785156 20.226562 -9.078125 19.96875 -8.015625 C 19.71875 -6.953125 19.59375 -6.0625 19.59375 -5.34375 C 19.59375 -3.738281 20.160156 -2.675781 21.296875 -2.15625 C 22.429688 -1.644531 23.898438 -1.390625 25.703125 -1.390625 L 25.328125 0 L 1.9375 0 L 2.328125 -1.390625 C 5.265625 -1.390625 7.40625 -1.765625 8.75 -2.515625 C 10.09375 -3.265625 11.125 -4.851562 11.84375 -7.28125 L 21.609375 -41.046875 C 22.117188 -42.847656 22.476562 -44.160156 22.6875 -44.984375 C 22.894531 -45.816406 23 -46.4375 23 -46.84375 C 23 -48.550781 22.429688 -49.648438 21.296875 -50.140625 C 20.160156 -50.628906 18.585938 -50.875 16.578125 -50.875 L 16.953125 -52.265625 L 35.46875 -52.265625 C 41.25 -52.265625 45.660156 -51.191406 48.703125 -49.046875 C 51.753906 -46.910156 53.28125 -44.140625 53.28125 -40.734375 Z M 31.75 -49.171875 L 25.78125 -28.1875 C 27.28125 -27.875 28.910156 -27.71875 30.671875 -27.71875 C 33.765625 -27.71875 36.367188 -28.347656 38.484375 -29.609375 C 40.597656 -30.878906 42.160156 -32.507812 43.171875 -34.5 C 44.179688 -36.488281 44.6875 -38.59375 44.6875 -40.8125 C 44.6875 -43.695312 43.832031 -45.863281 42.125 -47.3125 C 40.425781 -48.757812 38.207031 -49.484375 35.46875 -49.484375 C 34.644531 -49.484375 33.40625 -49.378906 31.75 -49.171875 Z M 31.75 -49.171875 "/></g></g></g><g fill="#1b1b1b" fill-opacity="1"><g transform="translate(116.162525, 56.995255)"><g><path d="M 25.09375 -35.390625 C 27.257812 -35.390625 29.078125 -34.847656 30.546875 -33.765625 C 32.015625 -32.679688 32.75 -31.285156 32.75 -29.578125 C 32.75 -27.929688 31.972656 -26.046875 30.421875 -23.921875 C 28.878906 -21.804688 26.363281 -19.9375 22.875 -18.3125 C 19.394531 -16.6875 14.972656 -15.796875 9.609375 -15.640625 C 9.296875 -14.609375 9.140625 -13.34375 9.140625 -11.84375 C 9.140625 -8.695312 9.988281 -6.410156 11.6875 -4.984375 C 13.394531 -3.566406 15.28125 -2.859375 17.34375 -2.859375 C 20.800781 -2.859375 24.3125 -4.585938 27.875 -8.046875 L 28.890625 -7.125 C 23.359375 -1.757812 18.015625 0.921875 12.859375 0.921875 C 10.734375 0.921875 8.882812 0.394531 7.3125 -0.65625 C 5.738281 -1.71875 4.550781 -3.097656 3.75 -4.796875 C 2.957031 -6.503906 2.5625 -8.257812 2.5625 -10.0625 C 2.5625 -13.675781 3.601562 -17.46875 5.6875 -21.4375 C 7.78125 -25.414062 10.566406 -28.734375 14.046875 -31.390625 C 17.535156 -34.054688 21.21875 -35.390625 25.09375 -35.390625 Z M 10.0625 -17.109375 C 13.570312 -17.367188 16.410156 -17.960938 18.578125 -18.890625 C 20.703125 -19.816406 22.421875 -21.015625 23.734375 -22.484375 C 25.046875 -23.960938 25.984375 -25.410156 26.546875 -26.828125 C 27.117188 -28.253906 27.40625 -29.429688 27.40625 -30.359375 C 27.40625 -31.234375 27.082031 -32.046875 26.4375 -32.796875 C 25.800781 -33.546875 24.890625 -33.921875 23.703125 -33.921875 C 21.628906 -33.921875 19.625 -32.960938 17.6875 -31.046875 C 15.757812 -29.140625 14.109375 -26.867188 12.734375 -24.234375 C 11.367188 -21.597656 10.476562 -19.222656 10.0625 -17.109375 Z M 10.0625 -17.109375 "/></g></g></g><g fill="#1b1b1b" fill-opacity="1"><g transform="translate(144.658975, 56.995255)"><g><path d="M 12.15625 -17.421875 C 15.40625 -22.796875 18.679688 -27.132812 21.984375 -30.4375 C 25.296875 -33.738281 28.367188 -35.390625 31.203125 -35.390625 C 32.390625 -35.390625 33.382812 -34.988281 34.1875 -34.1875 C 34.988281 -33.382812 35.390625 -32.238281 35.390625 -30.75 C 35.390625 -29.351562 35.03125 -27.335938 34.3125 -24.703125 L 29.421875 -7.96875 C 28.960938 -6.320312 28.734375 -5.1875 28.734375 -4.5625 C 28.734375 -4.101562 28.847656 -3.769531 29.078125 -3.5625 C 29.304688 -3.351562 29.550781 -3.25 29.8125 -3.25 C 30.4375 -3.25 31.390625 -3.921875 32.671875 -5.265625 C 33.960938 -6.609375 34.84375 -7.664062 35.3125 -8.4375 L 36.46875 -7.515625 C 34.875 -5.296875 33.082031 -3.332031 31.09375 -1.625 C 29.101562 0.0703125 27.234375 0.921875 25.484375 0.921875 C 24.648438 0.921875 23.945312 0.601562 23.375 -0.03125 C 22.8125 -0.675781 22.53125 -1.546875 22.53125 -2.640625 C 22.53125 -3.773438 22.816406 -5.296875 23.390625 -7.203125 L 28.65625 -25.703125 C 28.707031 -25.859375 28.832031 -26.285156 29.03125 -26.984375 C 29.238281 -27.679688 29.34375 -28.363281 29.34375 -29.03125 C 29.34375 -29.707031 29.160156 -30.222656 28.796875 -30.578125 C 28.441406 -30.941406 28.054688 -31.125 27.640625 -31.125 C 26.453125 -31.125 24.734375 -30.117188 22.484375 -28.109375 C 20.242188 -26.097656 18.066406 -23.566406 15.953125 -20.515625 C 14.140625 -17.984375 12.675781 -15.644531 11.5625 -13.5 C 10.457031 -11.363281 9.46875 -8.773438 8.59375 -5.734375 C 7.925781 -3.515625 7.382812 -1.601562 6.96875 0 L 1 0 L 8.359375 -25.78125 C 8.410156 -25.9375 8.59375 -26.59375 8.90625 -27.75 C 9.21875 -28.914062 9.375 -29.757812 9.375 -30.28125 C 9.375 -30.894531 9.148438 -31.367188 8.703125 -31.703125 C 8.265625 -32.046875 7.6875 -32.21875 6.96875 -32.21875 C 6.25 -32.21875 5.21875 -32.164062 3.875 -32.0625 L 3.875 -33.453125 L 15.71875 -35.390625 L 17.109375 -35.390625 L 12 -17.578125 Z M 12.15625 -17.421875 "/></g></g></g><g fill="#1b1b1b" fill-opacity="1"><g transform="translate(177.956453, 56.995255)"><g><path d="M 21.0625 -43.984375 L 22.53125 -43.984375 L 19.828125 -34.53125 L 25.25 -34.53125 L 24.625 -32.140625 L 19.125 -32.140625 L 12.234375 -8.046875 C 11.617188 -5.984375 11.3125 -4.59375 11.3125 -3.875 C 11.3125 -2.945312 11.695312 -2.484375 12.46875 -2.484375 C 13.132812 -2.484375 13.957031 -2.851562 14.9375 -3.59375 C 15.925781 -4.34375 16.84375 -5.179688 17.6875 -6.109375 C 18.539062 -7.046875 18.992188 -7.617188 19.046875 -7.828125 L 20.515625 -7.828125 C 18.503906 -4.617188 16.488281 -2.359375 14.46875 -1.046875 C 12.457031 0.265625 10.628906 0.921875 8.984375 0.921875 C 8.109375 0.921875 7.304688 0.585938 6.578125 -0.078125 C 5.859375 -0.742188 5.5 -1.773438 5.5 -3.171875 C 5.5 -4.097656 5.804688 -5.722656 6.421875 -8.046875 L 13.3125 -32.140625 L 7.515625 -32.140625 L 8.046875 -33.84375 C 11.097656 -34.351562 13.59375 -35.523438 15.53125 -37.359375 C 17.46875 -39.191406 19.3125 -41.398438 21.0625 -43.984375 Z M 21.0625 -43.984375 "/></g></g></g><g fill="#1b1b1b" fill-opacity="1"><g transform="translate(198.322109, 56.995255)"><g><path d="M 24.078125 -35.390625 C 25.472656 -35.390625 26.738281 -34.910156 27.875 -33.953125 C 29.007812 -33.003906 29.707031 -31.675781 29.96875 -29.96875 L 30.125 -29.96875 L 31.359375 -34.53125 L 37.484375 -35.390625 L 29.5 -7.4375 C 29.445312 -7.332031 29.316406 -6.941406 29.109375 -6.265625 C 28.910156 -5.597656 28.8125 -4.929688 28.8125 -4.265625 C 28.8125 -3.847656 28.910156 -3.519531 29.109375 -3.28125 C 29.316406 -3.050781 29.550781 -2.9375 29.8125 -2.9375 C 30.476562 -2.9375 31.328125 -3.398438 32.359375 -4.328125 C 33.398438 -5.265625 34.382812 -6.554688 35.3125 -8.203125 L 36.46875 -7.4375 C 35.070312 -4.851562 33.300781 -2.8125 31.15625 -1.3125 C 29.019531 0.175781 27.128906 0.921875 25.484375 0.921875 C 24.546875 0.921875 23.84375 0.585938 23.375 -0.078125 C 22.914062 -0.742188 22.6875 -1.570312 22.6875 -2.5625 C 22.6875 -3.226562 22.828125 -4.320312 23.109375 -5.84375 C 23.398438 -7.363281 23.851562 -8.898438 24.46875 -10.453125 L 24.3125 -10.609375 C 18.53125 -2.921875 13.289062 0.921875 8.59375 0.921875 C 6.53125 0.921875 4.890625 0.0351562 3.671875 -1.734375 C 2.460938 -3.515625 1.859375 -5.570312 1.859375 -7.90625 C 1.859375 -11.925781 3.03125 -16.09375 5.375 -20.40625 C 7.726562 -24.71875 10.644531 -28.289062 14.125 -31.125 C 17.613281 -33.96875 20.929688 -35.390625 24.078125 -35.390625 Z M 8.046875 -9.375 C 8.046875 -7.351562 8.507812 -5.878906 9.4375 -4.953125 C 10.375 -4.023438 11.460938 -3.5625 12.703125 -3.5625 C 14.296875 -3.5625 16.019531 -4.285156 17.875 -5.734375 C 19.738281 -7.179688 21.457031 -9.023438 23.03125 -11.265625 C 24.613281 -13.515625 25.789062 -15.800781 26.5625 -18.125 C 27.332031 -20.394531 27.898438 -22.265625 28.265625 -23.734375 C 28.628906 -25.203125 28.8125 -26.632812 28.8125 -28.03125 C 28.8125 -30.039062 28.34375 -31.523438 27.40625 -32.484375 C 26.476562 -33.441406 25.394531 -33.921875 24.15625 -33.921875 C 21.726562 -33.921875 19.265625 -32.4375 16.765625 -29.46875 C 14.265625 -26.5 12.1875 -23.023438 10.53125 -19.046875 C 8.875 -15.078125 8.046875 -11.851562 8.046875 -9.375 Z M 8.046875 -9.375 "/></g></g></g><g fill="#1b1b1b" fill-opacity="1"><g transform="translate(231.619588, 56.995255)"><g><path d="M 10.765625 -8.671875 C 10.398438 -7.429688 10.125 -6.4375 9.9375 -5.6875 C 9.757812 -4.9375 9.671875 -4.304688 9.671875 -3.796875 C 9.671875 -3.429688 9.757812 -3.15625 9.9375 -2.96875 C 10.125 -2.789062 10.296875 -2.703125 10.453125 -2.703125 C 11.078125 -2.703125 12.132812 -3.453125 13.625 -4.953125 C 15.125 -6.453125 16.054688 -7.507812 16.421875 -8.125 L 17.65625 -7.4375 C 16 -5.164062 14.191406 -3.203125 12.234375 -1.546875 C 10.273438 0.0976562 8.441406 0.921875 6.734375 0.921875 C 4.671875 0.921875 3.640625 -0.285156 3.640625 -2.703125 C 3.640625 -3.691406 3.84375 -4.90625 4.25 -6.34375 C 4.664062 -7.789062 4.953125 -8.75 5.109375 -9.21875 L 16.109375 -47.46875 C 16.421875 -48.65625 16.578125 -49.582031 16.578125 -50.25 C 16.578125 -50.925781 16.34375 -51.46875 15.875 -51.875 C 15.40625 -52.289062 14.8125 -52.5 14.09375 -52.5 C 13.113281 -52.5 12.234375 -52.421875 11.453125 -52.265625 L 11.453125 -53.734375 L 22.84375 -55.515625 L 24.15625 -55.515625 L 11.765625 -12.15625 C 11.253906 -10.300781 10.921875 -9.140625 10.765625 -8.671875 Z M 10.765625 -8.671875 "/></g></g></g></g></g><g transform="matrix(1, 0, 0, 1, 325, 15)"><g clip-path="url(#eb5cd3930d)"><g fill="#1b1b1b" fill-opacity="1"><g transform="translate(1.866999, 84.240832)"><g><path d="M 4.859375 0 L 4.859375 -12.078125 L 17.359375 -12.078125 L 17.359375 0 Z M 4.859375 0 "/></g></g></g><g fill="#1b1b1b" fill-opacity="1"><g transform="translate(11.849746, 84.240832)"><g><path d="M 21.390625 0 L 21.390625 -49.828125 L 1.171875 -49.828125 L 1.171875 -59.140625 L 52.6875 -59.140625 L 52.6875 -49.828125 L 32.46875 -49.828125 L 32.46875 0 Z M 21.390625 0 "/></g></g></g><g fill="#1b1b1b" fill-opacity="1"><g transform="translate(52.368128, 84.240832)"><g><path d="M 25.171875 0.84375 C 20.804688 0.84375 17.015625 -0.0351562 13.796875 -1.796875 C 10.578125 -3.566406 8.085938 -6.070312 6.328125 -9.3125 C 4.566406 -12.550781 3.6875 -16.351562 3.6875 -20.71875 C 3.6875 -25.132812 4.566406 -28.953125 6.328125 -32.171875 C 8.085938 -35.390625 10.578125 -37.878906 13.796875 -39.640625 C 17.015625 -41.398438 20.804688 -42.28125 25.171875 -42.28125 C 29.585938 -42.28125 33.390625 -41.398438 36.578125 -39.640625 C 39.765625 -37.878906 42.238281 -35.375 44 -32.125 C 45.757812 -28.882812 46.640625 -25.082031 46.640625 -20.71875 C 46.640625 -16.351562 45.757812 -12.550781 44 -9.3125 C 42.238281 -6.070312 39.765625 -3.566406 36.578125 -1.796875 C 33.390625 -0.0351562 29.585938 0.84375 25.171875 0.84375 Z M 25.171875 -7.71875 C 28.460938 -7.71875 31.0625 -8.847656 32.96875 -11.109375 C 34.875 -13.378906 35.828125 -16.613281 35.828125 -20.8125 C 35.828125 -25 34.875 -28.195312 32.96875 -30.40625 C 31.0625 -32.613281 28.460938 -33.71875 25.171875 -33.71875 C 21.921875 -33.71875 19.332031 -32.613281 17.40625 -30.40625 C 15.476562 -28.195312 14.515625 -25 14.515625 -20.8125 C 14.515625 -16.613281 15.476562 -13.378906 17.40625 -11.109375 C 19.332031 -8.847656 21.921875 -7.71875 25.171875 -7.71875 Z M 25.171875 -7.71875 "/></g></g></g><g fill="#1b1b1b" fill-opacity="1"><g transform="translate(95.990397, 84.240832)"><g><path d="M 25.171875 0.84375 C 20.804688 0.84375 17.015625 -0.0351562 13.796875 -1.796875 C 10.578125 -3.566406 8.085938 -6.070312 6.328125 -9.3125 C 4.566406 -12.550781 3.6875 -16.351562 3.6875 -20.71875 C 3.6875 -25.132812 4.566406 -28.953125 6.328125 -32.171875 C 8.085938 -35.390625 10.578125 -37.878906 13.796875 -39.640625 C 17.015625 -41.398438 20.804688 -42.28125 25.171875 -42.28125 C 29.585938 -42.28125 33.390625 -41.398438 36.578125 -39.640625 C 39.765625 -37.878906 42.238281 -35.375 44 -32.125 C 45.757812 -28.882812 46.640625 -25.082031 46.640625 -20.71875 C 46.640625 -16.351562 45.757812 -12.550781 44 -9.3125 C 42.238281 -6.070312 39.765625 -3.566406 36.578125 -1.796875 C 33.390625 -0.0351562 29.585938 0.84375 25.171875 0.84375 Z M 25.171875 -7.71875 C 28.460938 -7.71875 31.0625 -8.847656 32.96875 -11.109375 C 34.875 -13.378906 35.828125 -16.613281 35.828125 -20.8125 C 35.828125 -25 34.875 -28.195312 32.96875 -30.40625 C 31.0625 -32.613281 28.460938 -33.71875 25.171875 -33.71875 C 21.921875 -33.71875 19.332031 -32.613281 17.40625 -30.40625 C 15.476562 -28.195312 14.515625 -25 14.515625 -20.8125 C 14.515625 -16.613281 15.476562 -13.378906 17.40625 -11.109375 C 19.332031 -8.847656 21.921875 -7.71875 25.171875 -7.71875 Z M 25.171875 -7.71875 "/></g></g></g><g fill="#1b1b1b" fill-opacity="1"><g transform="translate(139.612665, 84.240832)"><g><path d="M 20.390625 0.84375 C 15.578125 0.84375 11.96875 -0.457031 9.5625 -3.0625 C 7.15625 -5.664062 5.953125 -9.453125 5.953125 -14.421875 L 5.953125 -59.140625 L 16.859375 -59.140625 L 16.859375 -15.09375 C 16.859375 -13.53125 17.082031 -12.21875 17.53125 -11.15625 C 17.976562 -10.09375 18.648438 -9.28125 19.546875 -8.71875 C 20.441406 -8.164062 21.53125 -7.890625 22.8125 -7.890625 C 23.539062 -7.890625 24.238281 -7.929688 24.90625 -8.015625 C 25.582031 -8.097656 26.253906 -8.222656 26.921875 -8.390625 L 27.09375 -0.078125 C 25.976562 0.191406 24.890625 0.410156 23.828125 0.578125 C 22.765625 0.753906 21.617188 0.84375 20.390625 0.84375 Z M 20.390625 0.84375 "/></g></g></g><g fill="#1b1b1b" fill-opacity="1"><g transform="translate(160.500998, 84.240832)"><g><path d="M 21.734375 0.84375 C 19.328125 0.84375 17.003906 0.644531 14.765625 0.25 C 12.523438 -0.132812 10.46875 -0.660156 8.59375 -1.328125 C 6.71875 -2.003906 5.082031 -2.875 3.6875 -3.9375 L 6.546875 -11.234375 C 7.941406 -10.347656 9.476562 -9.582031 11.15625 -8.9375 C 12.832031 -8.289062 14.566406 -7.8125 16.359375 -7.5 C 18.148438 -7.195312 19.882812 -7.046875 21.5625 -7.046875 C 24.46875 -7.046875 26.632812 -7.453125 28.0625 -8.265625 C 29.488281 -9.078125 30.203125 -10.238281 30.203125 -11.75 C 30.203125 -13.03125 29.765625 -14.003906 28.890625 -14.671875 C 28.023438 -15.347656 26.644531 -15.828125 24.75 -16.109375 L 15.9375 -17.609375 C 12.25 -18.234375 9.453125 -19.550781 7.546875 -21.5625 C 5.648438 -23.570312 4.703125 -26.085938 4.703125 -29.109375 C 4.703125 -31.734375 5.425781 -34.023438 6.875 -35.984375 C 8.332031 -37.941406 10.429688 -39.476562 13.171875 -40.59375 C 15.910156 -41.71875 19.15625 -42.28125 22.90625 -42.28125 C 24.914062 -42.28125 26.910156 -42.097656 28.890625 -41.734375 C 30.878906 -41.367188 32.726562 -40.835938 34.4375 -40.140625 C 36.144531 -39.441406 37.613281 -38.5625 38.84375 -37.5 L 35.828125 -30.203125 C 34.765625 -31.097656 33.503906 -31.851562 32.046875 -32.46875 C 30.585938 -33.082031 29.078125 -33.554688 27.515625 -33.890625 C 25.953125 -34.222656 24.441406 -34.390625 22.984375 -34.390625 C 20.078125 -34.390625 17.921875 -33.957031 16.515625 -33.09375 C 15.117188 -32.226562 14.421875 -31.039062 14.421875 -29.53125 C 14.421875 -28.300781 14.828125 -27.335938 15.640625 -26.640625 C 16.453125 -25.941406 17.726562 -25.453125 19.46875 -25.171875 L 28.109375 -23.65625 C 32.078125 -22.988281 35.039062 -21.71875 37 -19.84375 C 38.957031 -17.96875 39.9375 -15.4375 39.9375 -12.25 C 39.9375 -9.507812 39.179688 -7.160156 37.671875 -5.203125 C 36.160156 -3.242188 34.046875 -1.742188 31.328125 -0.703125 C 28.617188 0.328125 25.421875 0.84375 21.734375 0.84375 Z M 21.734375 0.84375 "/></g></g></g></g></g><g transform="matrix(1, 0, 0, 1, 27, 115)"><g clip-path="url(#b83fbe6a2c)"><g fill="#1b1b1b" fill-opacity="1"><g transform="translate(1.10887, 21.42253)"><g><path d="M 5.484375 0 L 5.484375 -12.765625 L 0.296875 -12.765625 L 0.296875 -15.15625 L 13.5 -15.15625 L 13.5 -12.765625 L 8.328125 -12.765625 L 8.328125 0 Z M 5.484375 0 "/></g></g></g><g fill="#1b1b1b" fill-opacity="1"><g transform="translate(17.042322, 21.42253)"><g><path d="M 1.828125 0 L 1.828125 -15.15625 L 4.671875 -15.15625 L 4.671875 -8.875 L 12.359375 -8.875 L 12.359375 -15.15625 L 15.203125 -15.15625 L 15.203125 0 L 12.359375 0 L 12.359375 -6.5 L 4.671875 -6.5 L 4.671875 0 Z M 1.828125 0 "/></g></g></g><g fill="#1b1b1b" fill-opacity="1"><g transform="translate(36.22251, 21.42253)"><g><path d="M 1.828125 0 L 1.828125 -15.15625 L 12.078125 -15.15625 L 12.078125 -12.859375 L 4.578125 -12.859375 L 4.578125 -8.84375 L 11.609375 -8.84375 L 11.609375 -6.53125 L 4.578125 -6.53125 L 4.578125 -2.296875 L 12.078125 -2.296875 L 12.078125 0 Z M 1.828125 0 "/></g></g></g><g fill="#1b1b1b" fill-opacity="1"><g transform="translate(51.768947, 21.42253)"><g/></g></g><g fill="#1b1b1b" fill-opacity="1"><g transform="translate(59.983362, 21.42253)"><g><path d="M 1.828125 0 L 1.828125 -15.15625 L 11.953125 -15.15625 L 11.953125 -12.859375 L 4.671875 -12.859375 L 4.671875 -8.703125 L 11.5 -8.703125 L 11.5 -6.390625 L 4.671875 -6.390625 L 4.671875 0 Z M 1.828125 0 "/></g></g></g><g fill="#1b1b1b" fill-opacity="1"><g transform="translate(74.777255, 21.42253)"><g><path d="M 8.109375 0.21875 C 6.023438 0.21875 4.429688 -0.3125 3.328125 -1.375 C 2.222656 -2.445312 1.671875 -4.03125 1.671875 -6.125 L 1.671875 -15.15625 L 4.515625 -15.15625 L 4.515625 -6.1875 C 4.515625 -4.875 4.820312 -3.894531 5.4375 -3.25 C 6.050781 -2.601562 6.941406 -2.28125 8.109375 -2.28125 C 9.285156 -2.28125 10.175781 -2.601562 10.78125 -3.25 C 11.394531 -3.894531 11.703125 -4.875 11.703125 -6.1875 L 11.703125 -15.15625 L 14.515625 -15.15625 L 14.515625 -6.125 C 14.515625 -4.050781 13.96875 -2.472656 12.875 -1.390625 C 11.789062 -0.316406 10.203125 0.21875 8.109375 0.21875 Z M 8.109375 0.21875 "/></g></g></g><g fill="#1b1b1b" fill-opacity="1"><g transform="translate(93.11889, 21.42253)"><g><path d="M 5.484375 0 L 5.484375 -12.765625 L 0.296875 -12.765625 L 0.296875 -15.15625 L 13.5 -15.15625 L 13.5 -12.765625 L 8.328125 -12.765625 L 8.328125 0 Z M 5.484375 0 "/></g></g></g><g fill="#1b1b1b" fill-opacity="1"><g transform="translate(109.052343, 21.42253)"><g><path d="M 8.109375 0.21875 C 6.023438 0.21875 4.429688 -0.3125 3.328125 -1.375 C 2.222656 -2.445312 1.671875 -4.03125 1.671875 -6.125 L 1.671875 -15.15625 L 4.515625 -15.15625 L 4.515625 -6.1875 C 4.515625 -4.875 4.820312 -3.894531 5.4375 -3.25 C 6.050781 -2.601562 6.941406 -2.28125 8.109375 -2.28125 C 9.285156 -2.28125 10.175781 -2.601562 10.78125 -3.25 C 11.394531 -3.894531 11.703125 -4.875 11.703125 -6.1875 L 11.703125 -15.15625 L 14.515625 -15.15625 L 14.515625 -6.125 C 14.515625 -4.050781 13.96875 -2.472656 12.875 -1.390625 C 11.789062 -0.316406 10.203125 0.21875 8.109375 0.21875 Z M 8.109375 0.21875 "/></g></g></g><g fill="#1b1b1b" fill-opacity="1"><g transform="translate(127.393979, 21.42253)"><g><path d="M 1.828125 0 L 1.828125 -15.15625 L 8.515625 -15.15625 C 10.203125 -15.15625 11.5 -14.757812 12.40625 -13.96875 C 13.320312 -13.1875 13.78125 -12.070312 13.78125 -10.625 C 13.78125 -9.75 13.59375 -8.992188 13.21875 -8.359375 C 12.84375 -7.734375 12.316406 -7.242188 11.640625 -6.890625 C 10.972656 -6.535156 10.164062 -6.332031 9.21875 -6.28125 L 9.359375 -6.453125 L 9.875 -6.421875 C 10.34375 -6.398438 10.757812 -6.253906 11.125 -5.984375 C 11.488281 -5.722656 11.820312 -5.304688 12.125 -4.734375 L 14.6875 0 L 11.5625 0 L 9.03125 -4.734375 C 8.851562 -5.054688 8.65625 -5.304688 8.4375 -5.484375 C 8.226562 -5.671875 7.988281 -5.800781 7.71875 -5.875 C 7.445312 -5.945312 7.128906 -5.984375 6.765625 -5.984375 L 4.671875 -5.984375 L 4.671875 0 Z M 4.671875 -8.125 L 8.109375 -8.125 C 9.078125 -8.125 9.800781 -8.320312 10.28125 -8.71875 C 10.769531 -9.125 11.015625 -9.726562 11.015625 -10.53125 C 11.015625 -11.320312 10.769531 -11.910156 10.28125 -12.296875 C 9.789062 -12.679688 9.054688 -12.875 8.078125 -12.875 L 4.671875 -12.875 Z M 4.671875 -8.125 "/></g></g></g><g fill="#1b1b1b" fill-opacity="1"><g transform="translate(144.789538, 21.42253)"><g><path d="M 1.828125 0 L 1.828125 -15.15625 L 12.078125 -15.15625 L 12.078125 -12.859375 L 4.578125 -12.859375 L 4.578125 -8.84375 L 11.609375 -8.84375 L 11.609375 -6.53125 L 4.578125 -6.53125 L 4.578125 -2.296875 L 12.078125 -2.296875 L 12.078125 0 Z M 1.828125 0 "/></g></g></g><g fill="#1b1b1b" fill-opacity="1"><g transform="translate(160.335974, 21.42253)"><g/></g></g><g fill="#1b1b1b" fill-opacity="1"><g transform="translate(168.55039, 21.42253)"><g><path d="M 8.671875 0.21875 C 7.546875 0.21875 6.53125 0.0351562 5.625 -0.328125 C 4.726562 -0.691406 3.957031 -1.210938 3.3125 -1.890625 C 2.664062 -2.578125 2.171875 -3.398438 1.828125 -4.359375 C 1.484375 -5.328125 1.3125 -6.40625 1.3125 -7.59375 C 1.3125 -8.78125 1.484375 -9.847656 1.828125 -10.796875 C 2.171875 -11.753906 2.664062 -12.570312 3.3125 -13.25 C 3.957031 -13.9375 4.726562 -14.460938 5.625 -14.828125 C 6.53125 -15.191406 7.546875 -15.375 8.671875 -15.375 C 9.765625 -15.375 10.765625 -15.191406 11.671875 -14.828125 C 12.578125 -14.460938 13.351562 -13.941406 14 -13.265625 C 14.644531 -12.585938 15.140625 -11.769531 15.484375 -10.8125 C 15.828125 -9.863281 16 -8.796875 16 -7.609375 C 16 -6.421875 15.828125 -5.347656 15.484375 -4.390625 C 15.140625 -3.429688 14.644531 -2.601562 14 -1.90625 C 13.351562 -1.21875 12.578125 -0.691406 11.671875 -0.328125 C 10.765625 0.0351562 9.765625 0.21875 8.671875 0.21875 Z M 8.671875 -2.234375 C 9.597656 -2.234375 10.382812 -2.441406 11.03125 -2.859375 C 11.6875 -3.273438 12.191406 -3.882812 12.546875 -4.6875 C 12.898438 -5.488281 13.078125 -6.457031 13.078125 -7.59375 C 13.078125 -8.738281 12.90625 -9.707031 12.5625 -10.5 C 12.21875 -11.300781 11.710938 -11.90625 11.046875 -12.3125 C 10.390625 -12.71875 9.597656 -12.921875 8.671875 -12.921875 C 7.734375 -12.921875 6.929688 -12.71875 6.265625 -12.3125 C 5.609375 -11.90625 5.101562 -11.300781 4.75 -10.5 C 4.40625 -9.707031 4.234375 -8.738281 4.234375 -7.59375 C 4.234375 -6.457031 4.40625 -5.488281 4.75 -4.6875 C 5.101562 -3.882812 5.609375 -3.273438 6.265625 -2.859375 C 6.929688 -2.441406 7.734375 -2.234375 8.671875 -2.234375 Z M 8.671875 -2.234375 "/></g></g></g><g fill="#1b1b1b" fill-opacity="1"><g transform="translate(188.010095, 21.42253)"><g><path d="M 1.828125 0 L 1.828125 -15.15625 L 11.953125 -15.15625 L 11.953125 -12.859375 L 4.671875 -12.859375 L 4.671875 -8.703125 L 11.5 -8.703125 L 11.5 -6.390625 L 4.671875 -6.390625 L 4.671875 0 Z M 1.828125 0 "/></g></g></g><g fill="#1b1b1b" fill-opacity="1"><g transform="translate(202.803988, 21.42253)"><g/></g></g><g fill="#1b1b1b" fill-opacity="1"><g transform="translate(211.018403, 21.42253)"><g><path d="M 1.828125 0 L 1.828125 -15.15625 L 8.53125 -15.15625 C 9.65625 -15.15625 10.609375 -14.96875 11.390625 -14.59375 C 12.171875 -14.226562 12.765625 -13.6875 13.171875 -12.96875 C 13.578125 -12.257812 13.78125 -11.40625 13.78125 -10.40625 C 13.78125 -9.425781 13.578125 -8.578125 13.171875 -7.859375 C 12.765625 -7.148438 12.171875 -6.601562 11.390625 -6.21875 C 10.609375 -5.832031 9.65625 -5.640625 8.53125 -5.640625 L 4.671875 -5.640625 L 4.671875 0 Z M 4.671875 -7.890625 L 8.078125 -7.890625 C 9.046875 -7.890625 9.773438 -8.097656 10.265625 -8.515625 C 10.765625 -8.929688 11.015625 -9.5625 11.015625 -10.40625 C 11.015625 -11.238281 10.765625 -11.859375 10.265625 -12.265625 C 9.773438 -12.671875 9.046875 -12.875 8.078125 -12.875 L 4.671875 -12.875 Z M 4.671875 -7.890625 "/></g></g></g><g fill="#1b1b1b" fill-opacity="1"><g transform="translate(227.747428, 21.42253)"><g><path d="M 1.828125 0 L 1.828125 -15.15625 L 8.515625 -15.15625 C 10.203125 -15.15625 11.5 -14.757812 12.40625 -13.96875 C 13.320312 -13.1875 13.78125 -12.070312 13.78125 -10.625 C 13.78125 -9.75 13.59375 -8.992188 13.21875 -8.359375 C 12.84375 -7.734375 12.316406 -7.242188 11.640625 -6.890625 C 10.972656 -6.535156 10.164062 -6.332031 9.21875 -6.28125 L 9.359375 -6.453125 L 9.875 -6.421875 C 10.34375 -6.398438 10.757812 -6.253906 11.125 -5.984375 C 11.488281 -5.722656 11.820312 -5.304688 12.125 -4.734375 L 14.6875 0 L 11.5625 0 L 9.03125 -4.734375 C 8.851562 -5.054688 8.65625 -5.304688 8.4375 -5.484375 C 8.226562 -5.671875 7.988281 -5.800781 7.71875 -5.875 C 7.445312 -5.945312 7.128906 -5.984375 6.765625 -5.984375 L 4.671875 -5.984375 L 4.671875 0 Z M 4.671875 -8.125 L 8.109375 -8.125 C 9.078125 -8.125 9.800781 -8.320312 10.28125 -8.71875 C 10.769531 -9.125 11.015625 -9.726562 11.015625 -10.53125 C 11.015625 -11.320312 10.769531 -11.910156 10.28125 -12.296875 C 9.789062 -12.679688 9.054688 -12.875 8.078125 -12.875 L 4.671875 -12.875 Z M 4.671875 -8.125 "/></g></g></g><g fill="#1b1b1b" fill-opacity="1"><g transform="translate(245.035464, 21.42253)"><g><path d="M 8.671875 0.21875 C 7.546875 0.21875 6.53125 0.0351562 5.625 -0.328125 C 4.726562 -0.691406 3.957031 -1.210938 3.3125 -1.890625 C 2.664062 -2.578125 2.171875 -3.398438 1.828125 -4.359375 C 1.484375 -5.328125 1.3125 -6.40625 1.3125 -7.59375 C 1.3125 -8.78125 1.484375 -9.847656 1.828125 -10.796875 C 2.171875 -11.753906 2.664062 -12.570312 3.3125 -13.25 C 3.957031 -13.9375 4.726562 -14.460938 5.625 -14.828125 C 6.53125 -15.191406 7.546875 -15.375 8.671875 -15.375 C 9.765625 -15.375 10.765625 -15.191406 11.671875 -14.828125 C 12.578125 -14.460938 13.351562 -13.941406 14 -13.265625 C 14.644531 -12.585938 15.140625 -11.769531 15.484375 -10.8125 C 15.828125 -9.863281 16 -8.796875 16 -7.609375 C 16 -6.421875 15.828125 -5.347656 15.484375 -4.390625 C 15.140625 -3.429688 14.644531 -2.601562 14 -1.90625 C 13.351562 -1.21875 12.578125 -0.691406 11.671875 -0.328125 C 10.765625 0.0351562 9.765625 0.21875 8.671875 0.21875 Z M 8.671875 -2.234375 C 9.597656 -2.234375 10.382812 -2.441406 11.03125 -2.859375 C 11.6875 -3.273438 12.191406 -3.882812 12.546875 -4.6875 C 12.898438 -5.488281 13.078125 -6.457031 13.078125 -7.59375 C 13.078125 -8.738281 12.90625 -9.707031 12.5625 -10.5 C 12.21875 -11.300781 11.710938 -11.90625 11.046875 -12.3125 C 10.390625 -12.71875 9.597656 -12.921875 8.671875 -12.921875 C 7.734375 -12.921875 6.929688 -12.71875 6.265625 -12.3125 C 5.609375 -11.90625 5.101562 -11.300781 4.75 -10.5 C 4.40625 -9.707031 4.234375 -8.738281 4.234375 -7.59375 C 4.234375 -6.457031 4.40625 -5.488281 4.75 -4.6875 C 5.101562 -3.882812 5.609375 -3.273438 6.265625 -2.859375 C 6.929688 -2.441406 7.734375 -2.234375 8.671875 -2.234375 Z M 8.671875 -2.234375 "/></g></g></g><g fill="#1b1b1b" fill-opacity="1"><g transform="translate(264.495169, 21.42253)"><g><path d="M 1.828125 0 L 1.828125 -15.15625 L 8.53125 -15.15625 C 9.65625 -15.15625 10.609375 -14.96875 11.390625 -14.59375 C 12.171875 -14.226562 12.765625 -13.6875 13.171875 -12.96875 C 13.578125 -12.257812 13.78125 -11.40625 13.78125 -10.40625 C 13.78125 -9.425781 13.578125 -8.578125 13.171875 -7.859375 C 12.765625 -7.148438 12.171875 -6.601562 11.390625 -6.21875 C 10.609375 -5.832031 9.65625 -5.640625 8.53125 -5.640625 L 4.671875 -5.640625 L 4.671875 0 Z M 4.671875 -7.890625 L 8.078125 -7.890625 C 9.046875 -7.890625 9.773438 -8.097656 10.265625 -8.515625 C 10.765625 -8.929688 11.015625 -9.5625 11.015625 -10.40625 C 11.015625 -11.238281 10.765625 -11.859375 10.265625 -12.265625 C 9.773438 -12.671875 9.046875 -12.875 8.078125 -12.875 L 4.671875 -12.875 Z M 4.671875 -7.890625 "/></g></g></g><g fill="#1b1b1b" fill-opacity="1"><g transform="translate(281.224194, 21.42253)"><g><path d="M 1.828125 0 L 1.828125 -15.15625 L 12.078125 -15.15625 L 12.078125 -12.859375 L 4.578125 -12.859375 L 4.578125 -8.84375 L 11.609375 -8.84375 L 11.609375 -6.53125 L 4.578125 -6.53125 L 4.578125 -2.296875 L 12.078125 -2.296875 L 12.078125 0 Z M 1.828125 0 "/></g></g></g><g fill="#1b1b1b" fill-opacity="1"><g transform="translate(296.770631, 21.42253)"><g><path d="M 1.828125 0 L 1.828125 -15.15625 L 8.515625 -15.15625 C 10.203125 -15.15625 11.5 -14.757812 12.40625 -13.96875 C 13.320312 -13.1875 13.78125 -12.070312 13.78125 -10.625 C 13.78125 -9.75 13.59375 -8.992188 13.21875 -8.359375 C 12.84375 -7.734375 12.316406 -7.242188 11.640625 -6.890625 C 10.972656 -6.535156 10.164062 -6.332031 9.21875 -6.28125 L 9.359375 -6.453125 L 9.875 -6.421875 C 10.34375 -6.398438 10.757812 -6.253906 11.125 -5.984375 C 11.488281 -5.722656 11.820312 -5.304688 12.125 -4.734375 L 14.6875 0 L 11.5625 0 L 9.03125 -4.734375 C 8.851562 -5.054688 8.65625 -5.304688 8.4375 -5.484375 C 8.226562 -5.671875 7.988281 -5.800781 7.71875 -5.875 C 7.445312 -5.945312 7.128906 -5.984375 6.765625 -5.984375 L 4.671875 -5.984375 L 4.671875 0 Z M 4.671875 -8.125 L 8.109375 -8.125 C 9.078125 -8.125 9.800781 -8.320312 10.28125 -8.71875 C 10.769531 -9.125 11.015625 -9.726562 11.015625 -10.53125 C 11.015625 -11.320312 10.769531 -11.910156 10.28125 -12.296875 C 9.789062 -12.679688 9.054688 -12.875 8.078125 -12.875 L 4.671875 -12.875 Z M 4.671875 -8.125 "/></g></g></g><g fill="#1b1b1b" fill-opacity="1"><g transform="translate(313.736095, 21.42253)"><g><path d="M 5.484375 0 L 5.484375 -12.765625 L 0.296875 -12.765625 L 0.296875 -15.15625 L 13.5 -15.15625 L 13.5 -12.765625 L 8.328125 -12.765625 L 8.328125 0 Z M 5.484375 0 "/></g></g></g><g fill="#1b1b1b" fill-opacity="1"><g transform="translate(329.949114, 21.42253)"><g><path d="M 5.375 0 L 5.375 -7.828125 L 5.9375 -6.015625 L -0.40625 -15.15625 L 2.8125 -15.15625 L 7.015625 -9.046875 L 6.640625 -9.046875 L 10.84375 -15.15625 L 13.96875 -15.15625 L 7.65625 -6.015625 L 8.21875 -7.828125 L 8.21875 0 Z M 5.375 0 "/></g></g></g><g fill="#1b1b1b" fill-opacity="1"><g transform="translate(345.689059, 21.42253)"><g/></g></g><g fill="#1b1b1b" fill-opacity="1"><g transform="translate(353.903474, 21.42253)"><g><path d="M 1.875 0 L 1.875 -15.15625 L 4.578125 -15.15625 L 9.890625 -5.015625 L 9.484375 -5.015625 L 14.796875 -15.15625 L 17.453125 -15.15625 L 17.453125 0 L 14.8125 0 L 14.8125 -10.9375 L 15.09375 -10.9375 L 10.5625 -2.359375 L 8.765625 -2.359375 L 4.1875 -10.96875 L 4.5 -10.96875 L 4.5 0 Z M 1.875 0 "/></g></g></g><g fill="#1b1b1b" fill-opacity="1"><g transform="translate(375.36283, 21.42253)"><g><path d="M 0.171875 0 L 7.015625 -15.15625 L 9.421875 -15.15625 L 16.25 0 L 13.359375 0 L 11.53125 -4.25 L 12.734375 -3.375 L 3.65625 -3.375 L 4.859375 -4.25 L 3.046875 0 Z M 8.171875 -12.125 L 5.15625 -5.015625 L 4.59375 -5.671875 L 11.78125 -5.671875 L 11.25 -5.015625 L 8.234375 -12.125 Z M 8.171875 -12.125 "/></g></g></g><g fill="#1b1b1b" fill-opacity="1"><g transform="translate(393.919489, 21.42253)"><g><path d="M 1.828125 0 L 1.828125 -15.15625 L 4.078125 -15.15625 L 12.5625 -4.0625 L 12.21875 -4.0625 L 12.21875 -15.15625 L 14.90625 -15.15625 L 14.90625 0 L 12.578125 0 L 4.1875 -11.046875 L 4.5 -11.046875 L 4.5 0 Z M 1.828125 0 "/></g></g></g><g fill="#1b1b1b" fill-opacity="1"><g transform="translate(412.798669, 21.42253)"><g><path d="M 0.171875 0 L 7.015625 -15.15625 L 9.421875 -15.15625 L 16.25 0 L 13.359375 0 L 11.53125 -4.25 L 12.734375 -3.375 L 3.65625 -3.375 L 4.859375 -4.25 L 3.046875 0 Z M 8.171875 -12.125 L 5.15625 -5.015625 L 4.59375 -5.671875 L 11.78125 -5.671875 L 11.25 -5.015625 L 8.234375 -12.125 Z M 8.171875 -12.125 "/></g></g></g><g fill="#1b1b1b" fill-opacity="1"><g transform="translate(431.032756, 21.42253)"><g><path d="M 9.078125 0.21875 C 7.421875 0.21875 6.015625 -0.09375 4.859375 -0.71875 C 3.710938 -1.351562 2.832031 -2.25 2.21875 -3.40625 C 1.613281 -4.570312 1.3125 -5.957031 1.3125 -7.5625 C 1.3125 -9.164062 1.617188 -10.550781 2.234375 -11.71875 C 2.847656 -12.894531 3.734375 -13.796875 4.890625 -14.421875 C 6.046875 -15.054688 7.425781 -15.375 9.03125 -15.375 C 9.757812 -15.375 10.457031 -15.304688 11.125 -15.171875 C 11.800781 -15.035156 12.421875 -14.84375 12.984375 -14.59375 C 13.554688 -14.34375 14.046875 -14.03125 14.453125 -13.65625 L 13.53125 -11.453125 C 12.832031 -11.972656 12.125 -12.34375 11.40625 -12.5625 C 10.695312 -12.789062 9.910156 -12.90625 9.046875 -12.90625 C 7.503906 -12.90625 6.316406 -12.445312 5.484375 -11.53125 C 4.648438 -10.625 4.234375 -9.300781 4.234375 -7.5625 C 4.234375 -5.789062 4.65625 -4.457031 5.5 -3.5625 C 6.34375 -2.664062 7.59375 -2.21875 9.25 -2.21875 C 9.894531 -2.21875 10.515625 -2.269531 11.109375 -2.375 C 11.703125 -2.476562 12.269531 -2.632812 12.8125 -2.84375 L 12.1875 -1.5625 L 12.1875 -6.15625 L 8.75 -6.15625 L 8.75 -8.34375 L 14.59375 -8.34375 L 14.59375 -0.90625 C 14.132812 -0.675781 13.597656 -0.476562 12.984375 -0.3125 C 12.378906 -0.144531 11.742188 -0.015625 11.078125 0.078125 C 10.410156 0.171875 9.742188 0.21875 9.078125 0.21875 Z M 9.078125 0.21875 "/></g></g></g><g fill="#1b1b1b" fill-opacity="1"><g transform="translate(449.460425, 21.42253)"><g><path d="M 1.828125 0 L 1.828125 -15.15625 L 12.078125 -15.15625 L 12.078125 -12.859375 L 4.578125 -12.859375 L 4.578125 -8.84375 L 11.609375 -8.84375 L 11.609375 -6.53125 L 4.578125 -6.53125 L 4.578125 -2.296875 L 12.078125 -2.296875 L 12.078125 0 Z M 1.828125 0 "/></g></g></g><g fill="#1b1b1b" fill-opacity="1"><g transform="translate(465.006861, 21.42253)"><g><path d="M 1.875 0 L 1.875 -15.15625 L 4.578125 -15.15625 L 9.890625 -5.015625 L 9.484375 -5.015625 L 14.796875 -15.15625 L 17.453125 -15.15625 L 17.453125 0 L 14.8125 0 L 14.8125 -10.9375 L 15.09375 -10.9375 L 10.5625 -2.359375 L 8.765625 -2.359375 L 4.1875 -10.96875 L 4.5 -10.96875 L 4.5 0 Z M 1.875 0 "/></g></g></g><g fill="#1b1b1b" fill-opacity="1"><g transform="translate(486.466217, 21.42253)"><g><path d="M 1.828125 0 L 1.828125 -15.15625 L 12.078125 -15.15625 L 12.078125 -12.859375 L 4.578125 -12.859375 L 4.578125 -8.84375 L 11.609375 -8.84375 L 11.609375 -6.53125 L 4.578125 -6.53125 L 4.578125 -2.296875 L 12.078125 -2.296875 L 12.078125 0 Z M 1.828125 0 "/></g></g></g><g fill="#1b1b1b" fill-opacity="1"><g transform="translate(502.012654, 21.42253)"><g><path d="M 1.828125 0 L 1.828125 -15.15625 L 4.078125 -15.15625 L 12.5625 -4.0625 L 12.21875 -4.0625 L 12.21875 -15.15625 L 14.90625 -15.15625 L 14.90625 0 L 12.578125 0 L 4.1875 -11.046875 L 4.5 -11.046875 L 4.5 0 Z M 1.828125 0 "/></g></g></g><g fill="#1b1b1b" fill-opacity="1"><g transform="translate(520.891834, 21.42253)"><g><path d="M 5.484375 0 L 5.484375 -12.765625 L 0.296875 -12.765625 L 0.296875 -15.15625 L 13.5 -15.15625 L 13.5 -12.765625 L 8.328125 -12.765625 L 8.328125 0 Z M 5.484375 0 "/></g></g></g></g></g><g transform="matrix(1, 0, 0, 1, 210, 151)"><g clip-path="url(#d4e4d50386)"><g fill="#1b1b1b" fill-opacity="1"><g transform="translate(1.407782, 16.641572)"><g><path d="M 1.46875 0 L 1.46875 -12.125 L 9.671875 -12.125 L 9.671875 -10.28125 L 3.671875 -10.28125 L 3.671875 -7.078125 L 9.296875 -7.078125 L 9.296875 -5.234375 L 3.671875 -5.234375 L 3.671875 -1.84375 L 9.671875 -1.84375 L 9.671875 0 Z M 1.46875 0 "/></g></g></g><g fill="#1b1b1b" fill-opacity="1"><g transform="translate(11.95642, 16.641572)"><g><path d="M 5.734375 0.171875 C 5.078125 0.171875 4.445312 0.117188 3.84375 0.015625 C 3.25 -0.0859375 2.703125 -0.234375 2.203125 -0.421875 C 1.710938 -0.617188 1.273438 -0.859375 0.890625 -1.140625 L 1.59375 -2.9375 C 1.976562 -2.675781 2.382812 -2.457031 2.8125 -2.28125 C 3.25 -2.101562 3.710938 -1.96875 4.203125 -1.875 C 4.691406 -1.789062 5.203125 -1.75 5.734375 -1.75 C 6.597656 -1.75 7.238281 -1.894531 7.65625 -2.1875 C 8.082031 -2.476562 8.296875 -2.878906 8.296875 -3.390625 C 8.296875 -3.660156 8.226562 -3.882812 8.09375 -4.0625 C 7.96875 -4.238281 7.757812 -4.390625 7.46875 -4.515625 C 7.175781 -4.648438 6.796875 -4.757812 6.328125 -4.84375 L 4.390625 -5.234375 C 3.273438 -5.453125 2.453125 -5.84375 1.921875 -6.40625 C 1.398438 -6.976562 1.140625 -7.707031 1.140625 -8.59375 C 1.140625 -9.34375 1.34375 -9.992188 1.75 -10.546875 C 2.164062 -11.109375 2.738281 -11.539062 3.46875 -11.84375 C 4.195312 -12.144531 5.035156 -12.296875 5.984375 -12.296875 C 6.546875 -12.296875 7.082031 -12.242188 7.59375 -12.140625 C 8.113281 -12.035156 8.59375 -11.878906 9.03125 -11.671875 C 9.46875 -11.472656 9.851562 -11.226562 10.1875 -10.9375 L 9.46875 -9.1875 C 8.976562 -9.601562 8.441406 -9.90625 7.859375 -10.09375 C 7.285156 -10.28125 6.65625 -10.375 5.96875 -10.375 C 5.4375 -10.375 4.976562 -10.300781 4.59375 -10.15625 C 4.21875 -10.019531 3.921875 -9.820312 3.703125 -9.5625 C 3.492188 -9.3125 3.390625 -9.007812 3.390625 -8.65625 C 3.390625 -8.238281 3.523438 -7.914062 3.796875 -7.6875 C 4.066406 -7.457031 4.539062 -7.273438 5.21875 -7.140625 L 7.140625 -6.765625 C 8.285156 -6.535156 9.140625 -6.15625 9.703125 -5.625 C 10.265625 -5.09375 10.546875 -4.394531 10.546875 -3.53125 C 10.546875 -2.789062 10.347656 -2.140625 9.953125 -1.578125 C 9.554688 -1.023438 8.992188 -0.59375 8.265625 -0.28125 C 7.546875 0.0195312 6.703125 0.171875 5.734375 0.171875 Z M 5.734375 0.171875 "/></g></g></g><g fill="#1b1b1b" fill-opacity="1"><g transform="translate(22.952463, 16.641572)"><g><path d="M 4.390625 0 L 4.390625 -10.21875 L 0.234375 -10.21875 L 0.234375 -12.125 L 10.796875 -12.125 L 10.796875 -10.21875 L 6.65625 -10.21875 L 6.65625 0 Z M 4.390625 0 "/></g></g></g><g fill="#1b1b1b" fill-opacity="1"><g transform="translate(32.640667, 16.641572)"><g><path d="M 0.140625 0 L 5.609375 -12.125 L 7.53125 -12.125 L 13 0 L 10.6875 0 L 9.21875 -3.40625 L 10.1875 -2.703125 L 2.921875 -2.703125 L 3.890625 -3.40625 L 2.4375 0 Z M 6.53125 -9.703125 L 4.125 -4.015625 L 3.6875 -4.546875 L 9.421875 -4.546875 L 9 -4.015625 L 6.59375 -9.703125 Z M 6.53125 -9.703125 "/></g></g></g><g fill="#1b1b1b" fill-opacity="1"><g transform="translate(45.770521, 16.641572)"><g><path d="M 1.46875 0 L 1.46875 -12.125 L 6.828125 -12.125 C 8.128906 -12.125 9.132812 -11.847656 9.84375 -11.296875 C 10.5625 -10.753906 10.921875 -9.984375 10.921875 -8.984375 C 10.921875 -8.242188 10.722656 -7.632812 10.328125 -7.15625 C 9.929688 -6.675781 9.40625 -6.347656 8.75 -6.171875 L 8.75 -6.3125 C 9.25 -6.226562 9.679688 -6.0625 10.046875 -5.8125 C 10.421875 -5.5625 10.710938 -5.234375 10.921875 -4.828125 C 11.128906 -4.429688 11.234375 -3.953125 11.234375 -3.390625 C 11.234375 -2.679688 11.066406 -2.070312 10.734375 -1.5625 C 10.398438 -1.050781 9.914062 -0.660156 9.28125 -0.390625 C 8.65625 -0.128906 7.898438 0 7.015625 0 Z M 3.671875 -1.765625 L 6.8125 -1.765625 C 7.113281 -1.765625 7.378906 -1.785156 7.609375 -1.828125 C 7.847656 -1.878906 8.054688 -1.953125 8.234375 -2.046875 C 8.410156 -2.140625 8.554688 -2.253906 8.671875 -2.390625 C 8.785156 -2.535156 8.867188 -2.703125 8.921875 -2.890625 C 8.984375 -3.085938 9.015625 -3.296875 9.015625 -3.515625 C 9.015625 -3.765625 8.984375 -3.976562 8.921875 -4.15625 C 8.867188 -4.34375 8.78125 -4.503906 8.65625 -4.640625 C 8.539062 -4.773438 8.394531 -4.890625 8.21875 -4.984375 C 8.050781 -5.078125 7.847656 -5.144531 7.609375 -5.1875 C 7.367188 -5.226562 7.101562 -5.25 6.8125 -5.25 L 3.671875 -5.25 Z M 3.671875 -7.015625 L 6.515625 -7.015625 C 7.253906 -7.015625 7.800781 -7.15625 8.15625 -7.4375 C 8.519531 -7.71875 8.703125 -8.140625 8.703125 -8.703125 C 8.703125 -9.253906 8.523438 -9.664062 8.171875 -9.9375 C 7.816406 -10.21875 7.265625 -10.359375 6.515625 -10.359375 L 3.671875 -10.359375 Z M 3.671875 -7.015625 "/></g></g></g><g fill="#1b1b1b" fill-opacity="1"><g transform="translate(58.022763, 16.641572)"><g><path d="M 1.46875 0 L 1.46875 -12.125 L 3.734375 -12.125 L 3.734375 -1.9375 L 9.546875 -1.9375 L 9.546875 0 Z M 1.46875 0 "/></g></g></g><g fill="#1b1b1b" fill-opacity="1"><g transform="translate(68.037938, 16.641572)"><g><path d="M 1.46875 0 L 1.46875 -12.125 L 3.734375 -12.125 L 3.734375 0 Z M 1.46875 0 "/></g></g></g><g fill="#1b1b1b" fill-opacity="1"><g transform="translate(73.21761, 16.641572)"><g><path d="M 5.734375 0.171875 C 5.078125 0.171875 4.445312 0.117188 3.84375 0.015625 C 3.25 -0.0859375 2.703125 -0.234375 2.203125 -0.421875 C 1.710938 -0.617188 1.273438 -0.859375 0.890625 -1.140625 L 1.59375 -2.9375 C 1.976562 -2.675781 2.382812 -2.457031 2.8125 -2.28125 C 3.25 -2.101562 3.710938 -1.96875 4.203125 -1.875 C 4.691406 -1.789062 5.203125 -1.75 5.734375 -1.75 C 6.597656 -1.75 7.238281 -1.894531 7.65625 -2.1875 C 8.082031 -2.476562 8.296875 -2.878906 8.296875 -3.390625 C 8.296875 -3.660156 8.226562 -3.882812 8.09375 -4.0625 C 7.96875 -4.238281 7.757812 -4.390625 7.46875 -4.515625 C 7.175781 -4.648438 6.796875 -4.757812 6.328125 -4.84375 L 4.390625 -5.234375 C 3.273438 -5.453125 2.453125 -5.84375 1.921875 -6.40625 C 1.398438 -6.976562 1.140625 -7.707031 1.140625 -8.59375 C 1.140625 -9.34375 1.34375 -9.992188 1.75 -10.546875 C 2.164062 -11.109375 2.738281 -11.539062 3.46875 -11.84375 C 4.195312 -12.144531 5.035156 -12.296875 5.984375 -12.296875 C 6.546875 -12.296875 7.082031 -12.242188 7.59375 -12.140625 C 8.113281 -12.035156 8.59375 -11.878906 9.03125 -11.671875 C 9.46875 -11.472656 9.851562 -11.226562 10.1875 -10.9375 L 9.46875 -9.1875 C 8.976562 -9.601562 8.441406 -9.90625 7.859375 -10.09375 C 7.285156 -10.28125 6.65625 -10.375 5.96875 -10.375 C 5.4375 -10.375 4.976562 -10.300781 4.59375 -10.15625 C 4.21875 -10.019531 3.921875 -9.820312 3.703125 -9.5625 C 3.492188 -9.3125 3.390625 -9.007812 3.390625 -8.65625 C 3.390625 -8.238281 3.523438 -7.914062 3.796875 -7.6875 C 4.066406 -7.457031 4.539062 -7.273438 5.21875 -7.140625 L 7.140625 -6.765625 C 8.285156 -6.535156 9.140625 -6.15625 9.703125 -5.625 C 10.265625 -5.09375 10.546875 -4.394531 10.546875 -3.53125 C 10.546875 -2.789062 10.347656 -2.140625 9.953125 -1.578125 C 9.554688 -1.023438 8.992188 -0.59375 8.265625 -0.28125 C 7.546875 0.0195312 6.703125 0.171875 5.734375 0.171875 Z M 5.734375 0.171875 "/></g></g></g><g fill="#1b1b1b" fill-opacity="1"><g transform="translate(84.471763, 16.641572)"><g><path d="M 1.46875 0 L 1.46875 -12.125 L 3.734375 -12.125 L 3.734375 -7.109375 L 9.890625 -7.109375 L 9.890625 -12.125 L 12.15625 -12.125 L 12.15625 0 L 9.890625 0 L 9.890625 -5.203125 L 3.734375 -5.203125 L 3.734375 0 Z M 1.46875 0 "/></g></g></g><g fill="#1b1b1b" fill-opacity="1"><g transform="translate(98.100661, 16.641572)"><g><path d="M 1.46875 0 L 1.46875 -12.125 L 9.671875 -12.125 L 9.671875 -10.28125 L 3.671875 -10.28125 L 3.671875 -7.078125 L 9.296875 -7.078125 L 9.296875 -5.234375 L 3.671875 -5.234375 L 3.671875 -1.84375 L 9.671875 -1.84375 L 9.671875 0 Z M 1.46875 0 "/></g></g></g><g fill="#1b1b1b" fill-opacity="1"><g transform="translate(108.821373, 16.641572)"><g><path d="M 1.46875 0 L 1.46875 -12.125 L 6.078125 -12.125 C 7.410156 -12.125 8.546875 -11.890625 9.484375 -11.421875 C 10.429688 -10.953125 11.148438 -10.265625 11.640625 -9.359375 C 12.140625 -8.460938 12.390625 -7.367188 12.390625 -6.078125 C 12.390625 -4.773438 12.140625 -3.671875 11.640625 -2.765625 C 11.148438 -1.859375 10.429688 -1.171875 9.484375 -0.703125 C 8.546875 -0.234375 7.410156 0 6.078125 0 Z M 3.734375 -1.890625 L 5.9375 -1.890625 C 7.289062 -1.890625 8.3125 -2.234375 9 -2.921875 C 9.6875 -3.617188 10.03125 -4.671875 10.03125 -6.078125 C 10.03125 -7.472656 9.6875 -8.515625 9 -9.203125 C 8.3125 -9.890625 7.289062 -10.234375 5.9375 -10.234375 L 3.734375 -10.234375 Z M 3.734375 -1.890625 "/></g></g></g><g fill="#1b1b1b" fill-opacity="1"><g transform="translate(122.243756, 16.641572)"><g/></g></g><g fill="#1b1b1b" fill-opacity="1"><g transform="translate(127.096457, 16.641572)"><g><path d="M 1.328125 0 L 1.328125 -1.65625 L 5.3125 -5.828125 C 5.664062 -6.222656 5.945312 -6.578125 6.15625 -6.890625 C 6.375 -7.203125 6.53125 -7.5 6.625 -7.78125 C 6.726562 -8.070312 6.78125 -8.367188 6.78125 -8.671875 C 6.78125 -9.234375 6.59375 -9.660156 6.21875 -9.953125 C 5.851562 -10.253906 5.332031 -10.40625 4.65625 -10.40625 C 4.132812 -10.40625 3.613281 -10.304688 3.09375 -10.109375 C 2.570312 -9.910156 2.070312 -9.597656 1.59375 -9.171875 L 0.828125 -10.859375 C 1.328125 -11.304688 1.941406 -11.65625 2.671875 -11.90625 C 3.398438 -12.164062 4.15625 -12.296875 4.9375 -12.296875 C 5.800781 -12.296875 6.53125 -12.160156 7.125 -11.890625 C 7.726562 -11.617188 8.1875 -11.222656 8.5 -10.703125 C 8.820312 -10.191406 8.984375 -9.578125 8.984375 -8.859375 C 8.984375 -8.503906 8.9375 -8.148438 8.84375 -7.796875 C 8.757812 -7.453125 8.628906 -7.109375 8.453125 -6.765625 C 8.273438 -6.429688 8.050781 -6.085938 7.78125 -5.734375 C 7.519531 -5.390625 7.203125 -5.019531 6.828125 -4.625 L 3.84375 -1.515625 L 3.84375 -1.875 L 9.4375 -1.875 L 9.4375 0 Z M 1.328125 0 "/></g></g></g><g fill="#1b1b1b" fill-opacity="1"><g transform="translate(137.421382, 16.641572)"><g><path d="M 5.15625 0.171875 C 4.195312 0.171875 3.382812 -0.0664062 2.71875 -0.546875 C 2.0625 -1.023438 1.5625 -1.726562 1.21875 -2.65625 C 0.882812 -3.59375 0.71875 -4.738281 0.71875 -6.09375 C 0.71875 -7.445312 0.882812 -8.582031 1.21875 -9.5 C 1.550781 -10.414062 2.050781 -11.109375 2.71875 -11.578125 C 3.382812 -12.054688 4.195312 -12.296875 5.15625 -12.296875 C 6.132812 -12.296875 6.953125 -12.0625 7.609375 -11.59375 C 8.265625 -11.125 8.757812 -10.425781 9.09375 -9.5 C 9.425781 -8.582031 9.59375 -7.453125 9.59375 -6.109375 C 9.59375 -4.753906 9.421875 -3.613281 9.078125 -2.6875 C 8.742188 -1.757812 8.25 -1.050781 7.59375 -0.5625 C 6.945312 -0.0703125 6.132812 0.171875 5.15625 0.171875 Z M 5.15625 -1.6875 C 5.925781 -1.6875 6.5 -2.039062 6.875 -2.75 C 7.25 -3.457031 7.4375 -4.570312 7.4375 -6.09375 C 7.4375 -7.601562 7.25 -8.703125 6.875 -9.390625 C 6.507812 -10.085938 5.9375 -10.4375 5.15625 -10.4375 C 4.394531 -10.4375 3.828125 -10.085938 3.453125 -9.390625 C 3.078125 -8.703125 2.890625 -7.601562 2.890625 -6.09375 C 2.890625 -4.570312 3.078125 -3.457031 3.453125 -2.75 C 3.828125 -2.039062 4.394531 -1.6875 5.15625 -1.6875 Z M 5.15625 -1.6875 "/></g></g></g><g fill="#1b1b1b" fill-opacity="1"><g transform="translate(147.746307, 16.641572)"><g><path d="M 1.328125 0 L 1.328125 -1.65625 L 5.3125 -5.828125 C 5.664062 -6.222656 5.945312 -6.578125 6.15625 -6.890625 C 6.375 -7.203125 6.53125 -7.5 6.625 -7.78125 C 6.726562 -8.070312 6.78125 -8.367188 6.78125 -8.671875 C 6.78125 -9.234375 6.59375 -9.660156 6.21875 -9.953125 C 5.851562 -10.253906 5.332031 -10.40625 4.65625 -10.40625 C 4.132812 -10.40625 3.613281 -10.304688 3.09375 -10.109375 C 2.570312 -9.910156 2.070312 -9.597656 1.59375 -9.171875 L 0.828125 -10.859375 C 1.328125 -11.304688 1.941406 -11.65625 2.671875 -11.90625 C 3.398438 -12.164062 4.15625 -12.296875 4.9375 -12.296875 C 5.800781 -12.296875 6.53125 -12.160156 7.125 -11.890625 C 7.726562 -11.617188 8.1875 -11.222656 8.5 -10.703125 C 8.820312 -10.191406 8.984375 -9.578125 8.984375 -8.859375 C 8.984375 -8.503906 8.9375 -8.148438 8.84375 -7.796875 C 8.757812 -7.453125 8.628906 -7.109375 8.453125 -6.765625 C 8.273438 -6.429688 8.050781 -6.085938 7.78125 -5.734375 C 7.519531 -5.390625 7.203125 -5.019531 6.828125 -4.625 L 3.84375 -1.515625 L 3.84375 -1.875 L 9.4375 -1.875 L 9.4375 0 Z M 1.328125 0 "/></g></g></g><g fill="#1b1b1b" fill-opacity="1"><g transform="translate(158.071232, 16.641572)"><g><path d="M 5.234375 0.171875 C 4.691406 0.171875 4.164062 0.113281 3.65625 0 C 3.15625 -0.113281 2.679688 -0.273438 2.234375 -0.484375 C 1.796875 -0.691406 1.414062 -0.9375 1.09375 -1.21875 L 1.859375 -2.9375 C 2.367188 -2.53125 2.898438 -2.222656 3.453125 -2.015625 C 4.015625 -1.816406 4.597656 -1.71875 5.203125 -1.71875 C 5.921875 -1.71875 6.484375 -1.894531 6.890625 -2.25 C 7.296875 -2.613281 7.5 -3.117188 7.5 -3.765625 C 7.5 -4.410156 7.304688 -4.925781 6.921875 -5.3125 C 6.535156 -5.695312 6.003906 -5.890625 5.328125 -5.890625 C 4.847656 -5.890625 4.421875 -5.796875 4.046875 -5.609375 C 3.679688 -5.421875 3.335938 -5.144531 3.015625 -4.78125 L 1.4375 -4.78125 L 1.4375 -12.125 L 8.96875 -12.125 L 8.96875 -10.25 L 3.546875 -10.25 L 3.546875 -6.5 L 3.203125 -6.5 C 3.472656 -6.863281 3.84375 -7.15625 4.3125 -7.375 C 4.78125 -7.59375 5.296875 -7.703125 5.859375 -7.703125 C 6.628906 -7.703125 7.296875 -7.539062 7.859375 -7.21875 C 8.429688 -6.90625 8.875 -6.457031 9.1875 -5.875 C 9.5 -5.289062 9.65625 -4.617188 9.65625 -3.859375 C 9.65625 -3.035156 9.472656 -2.320312 9.109375 -1.71875 C 8.753906 -1.125 8.242188 -0.660156 7.578125 -0.328125 C 6.921875 0.00390625 6.140625 0.171875 5.234375 0.171875 Z M 5.234375 0.171875 "/></g></g></g></g></g></svg>